<svg width="68" height="68" viewBox="0 0 68 68" fill="none" xmlns="http://www.w3.org/2000/svg">
<rect width="68" height="68" rx="15" fill="url(#paint0_linear_669_2642)"/>
<path fill-rule="evenodd" clip-rule="evenodd" d="M25.4684 34L15.6218 43.8466C15.2421 44.2263 14.9838 44.7093 14.8787 45.2359L13.493 52.1607C13.3625 52.8141 13.5673 53.4902 14.0386 53.9614C14.5098 54.4327 15.1859 54.6375 15.8393 54.507L22.7641 53.1213C23.2906 53.0162 23.7737 52.7579 24.1534 52.3782L34 42.5316L45.6718 54.2034C46.1811 54.7127 46.8726 55 47.594 55C48.3154 55 49.0069 54.7127 49.5162 54.2034C50.8366 52.883 52.883 50.8366 54.2034 49.5162C54.7127 49.0069 55 48.3154 55 47.594C55 46.8726 54.7127 46.1811 54.2034 45.6718L42.5316 34L54.2034 22.3282C54.7136 21.8189 55 21.1274 55 20.406C55 19.6846 54.7127 18.9931 54.2034 18.4838C52.883 17.1634 50.8366 15.117 49.5162 13.7966C49.0069 13.2873 48.3154 13 47.594 13C46.8726 13 46.1811 13.2864 45.6718 13.7966L34 25.4684L22.3282 13.7966C21.8189 13.2873 21.1274 13 20.406 13C19.6846 13 18.9931 13.2873 18.4838 13.7966C17.1634 15.117 15.117 17.1634 13.7966 18.4838C13.2873 18.9931 13 19.6846 13 20.406C13 21.1274 13.2873 21.8189 13.7966 22.3282L25.4684 34ZM45.2504 51.2191L46.9533 52.9219C47.1227 53.0914 47.3538 53.1875 47.594 53.1875C47.8342 53.1875 48.0653 53.0914 48.2347 52.9219L52.9219 48.2347C53.0914 48.0653 53.1875 47.8342 53.1875 47.594C53.1875 47.3538 53.0914 47.1227 52.9219 46.9533L21.0467 15.0781C20.8773 14.9086 20.6462 14.8125 20.406 14.8125C20.1658 14.8125 19.9347 14.9086 19.7653 15.0781L15.0781 19.7653C14.9086 19.9347 14.8125 20.1658 14.8125 20.406C14.8125 20.6462 14.9086 20.8773 15.0781 21.0467L16.7809 22.7496L18.859 20.6715C19.2125 20.3181 19.787 20.3181 20.1405 20.6715C20.4939 21.025 20.4939 21.5996 20.1405 21.953L18.0624 24.0311L19.4997 25.4684L21.5778 23.3903C21.9313 23.0369 22.5058 23.0369 22.8593 23.3903C23.2127 23.7438 23.2127 24.3184 22.8593 24.6718L20.7812 26.7499L22.2185 28.1872L24.2966 26.1091C24.65 25.7557 25.2246 25.7557 25.5781 26.1091C25.9315 26.4626 25.9315 27.0372 25.5781 27.3906L23.5 29.4687L24.9373 30.906L27.0154 28.8279C27.3688 28.4745 27.9434 28.4745 28.2969 28.8279C28.6503 29.1814 28.6503 29.756 28.2969 30.1094L26.2188 32.1875L27.6561 33.6248L29.7342 31.5467C30.0876 31.1933 30.6622 31.1933 31.0157 31.5467C31.3691 31.9002 31.3691 32.4748 31.0157 32.8282L28.9376 34.9063L30.3749 36.3436L32.453 34.2655C32.8064 33.9121 33.381 33.9121 33.7345 34.2655C34.0879 34.619 34.0879 35.1936 33.7345 35.547L31.6564 37.6251L33.0937 39.0624L35.1718 36.9843C35.5252 36.6309 36.0998 36.6309 36.4533 36.9843C36.8067 37.3378 36.8067 37.9124 36.4533 38.2658L34.3752 40.3439L35.8125 41.7812L37.8906 39.7031C38.244 39.3497 38.8186 39.3497 39.1721 39.7031C39.5255 40.0566 39.5255 40.6312 39.1721 40.9846L37.094 43.0627L38.5313 44.5L40.6094 42.4219C40.9628 42.0685 41.5374 42.0685 41.8909 42.4219C42.2443 42.7754 42.2443 43.3499 41.8909 43.7034L39.8128 45.7815L41.2501 47.2188L43.3282 45.1407C43.6816 44.7873 44.2562 44.7873 44.6097 45.1407C44.9631 45.4942 44.9631 46.0687 44.6097 46.4222L42.5316 48.5003L43.9689 49.9376L46.047 47.8595C46.4004 47.5061 46.975 47.5061 47.3285 47.8595C47.6819 48.213 47.6819 48.7875 47.3285 49.141L45.2504 51.2191ZM16.4311 46.7131L21.2869 51.5689L15.4841 52.7289C15.4243 52.7416 15.3635 52.7226 15.32 52.68C15.2774 52.6365 15.2584 52.5757 15.2711 52.5159L16.4311 46.7131ZM26.7499 35.2815L17.1561 44.8752L23.1248 50.8439L32.7185 41.2501L26.7499 35.2815ZM35.2815 26.7499L41.2501 32.7185L47.2188 26.7499L41.2501 20.7812L35.2815 26.7499ZM48.5003 25.4684L42.5316 19.4997L46.9533 15.0781C47.1227 14.9086 47.3538 14.8125 47.594 14.8125C47.8342 14.8125 48.0653 14.9086 48.2347 15.0781L52.9219 19.7653C53.0914 19.9347 53.1875 20.1658 53.1875 20.406C53.1875 20.6462 53.0914 20.8773 52.9219 21.0467L48.5003 25.4684Z" fill="white"/>
<defs>
<linearGradient id="paint0_linear_669_2642" x1="2" y1="1.5" x2="88.5" y2="108" gradientUnits="userSpaceOnUse">
<stop stop-color="#5829C7"/>
<stop offset="1" stop-color="white"/>
</linearGradient>
</defs>
</svg>
