<svg width="68" height="68" viewBox="0 0 68 68" fill="none" xmlns="http://www.w3.org/2000/svg">
<rect width="68" height="68" rx="15" fill="url(#paint0_linear_669_2663)"/>
<path fill-rule="evenodd" clip-rule="evenodd" d="M14.6491 34.8985L13.9633 35.2189C13.5785 35.3986 13.305 35.7483 13.176 36.1664C13.0354 36.6274 13.0627 37.1647 13.2933 37.6687L16.0791 43.7387H16.0811L16.0869 43.7524H16.0889C16.3194 44.2467 16.7023 44.61 17.134 44.7976C17.5306 44.9695 17.9643 44.989 18.3433 44.8151V44.8132L18.3512 44.8093V44.8073L19.0466 44.483L14.649 34.9006L14.6491 34.8985ZM21.2462 44.2658L16.2295 33.3356C16.2197 33.2711 16.2041 33.2067 16.1826 33.1442C16.1845 33.1363 16.1865 33.1305 16.1884 33.1246C16.2021 33.0875 16.2314 33.0543 16.2685 33.0347L23.1317 29.8386L28.3536 41.2185L21.4808 44.4185L21.4554 44.4302C21.4261 44.4361 21.3949 44.4341 21.3656 44.4224L21.3597 44.4205C21.3245 44.3638 21.2855 44.3111 21.2425 44.2642L21.2462 44.2658ZM30.303 40.4582C32.7606 39.7452 35.4178 39.4326 37.9199 39.4209C39.9399 39.4111 41.8681 39.5987 43.5188 39.9327L33.9324 19.0445C33.1158 20.5253 32.01 22.1233 30.6952 23.6648C29.0679 25.5735 27.1064 27.4099 24.9693 28.8381L30.3026 40.46L30.303 40.4582ZM24.9541 45.1137L28.3827 52.428C28.5664 52.8207 28.9943 52.9458 29.4377 52.893C29.6565 52.8676 29.8812 52.8012 30.0961 52.7016C30.311 52.6019 30.5063 52.473 30.6626 52.3245C30.9674 52.0373 31.1295 51.6544 30.9518 51.2754L27.5056 43.924L24.9542 45.1118L24.9541 45.1137ZM45.6408 28.9497L43.4899 24.2649C43.6657 24.3254 43.8357 24.4016 44.0017 24.4935C44.6308 24.8432 45.1739 25.4175 45.5157 26.1618C45.8576 26.9062 45.9377 27.6993 45.7951 28.4143C45.758 28.598 45.7053 28.7777 45.6408 28.9497ZM42.4603 22.0184C43.3434 21.9969 44.2264 22.2275 45.0176 22.669C46.0198 23.2277 46.8814 24.1303 47.4147 25.2946C47.95 26.459 48.075 27.6995 47.8484 28.8248C47.6687 29.7176 47.2702 30.544 46.6762 31.2102L49.8528 38.1299C50.5425 39.6322 50.2221 40.9666 49.4406 41.8613C49.1358 42.211 48.7607 42.4865 48.3505 42.6759C47.9402 42.8654 47.485 42.969 47.0201 42.9729C46.5727 42.9768 46.1194 42.8889 45.6936 42.6974C45.592 42.6896 45.4884 42.6681 45.3869 42.6271C43.6071 41.9297 40.8916 41.494 37.928 41.5096C35.3531 41.5214 32.6082 41.8769 30.1505 42.6955L29.3984 43.0452L32.8426 50.3925C33.4717 51.7347 33.0184 52.9772 32.0944 53.8485C31.7681 54.1552 31.3871 54.4111 30.9788 54.6006C30.5705 54.7901 30.1271 54.9191 29.6816 54.9718C28.402 55.1242 27.1282 54.671 26.4914 53.3112L23.0608 45.9929L22.3653 46.3172C22.3302 46.3328 22.295 46.3485 22.2579 46.3602C21.7246 46.577 21.1502 46.5731 20.6461 46.3875C20.5191 46.3407 20.398 46.284 20.2808 46.2156L19.2317 46.704H19.2278L19.2161 46.7099H19.2122C18.2686 47.1436 17.2253 47.1143 16.3052 46.7177C15.4183 46.3348 14.6427 45.61 14.1874 44.6332V44.6293L14.1796 44.6117V44.6078L11.3938 38.5358C10.9425 37.5511 10.8917 36.4805 11.1769 35.5526C11.4758 34.5817 12.1323 33.7592 13.0778 33.3197L14.1113 32.8391C14.1347 32.6906 14.1718 32.5441 14.2226 32.4034C14.4219 31.8623 14.8243 31.3954 15.385 31.1355L23.18 27.5057C25.3836 26.1538 27.4271 24.2783 29.1075 22.3054C30.9517 20.1427 32.3387 17.8902 33.003 16.1083C33.0284 15.3269 33.3292 14.6411 33.7922 14.1117C34.097 13.762 34.4721 13.4846 34.8824 13.2971C35.2926 13.1076 35.7478 13.004 36.2128 13.0001C37.3908 12.9903 38.6001 13.6116 39.2878 15.11L42.4585 22.0198L42.4603 22.0184ZM40.9052 23.636L44.4647 31.392C44.4686 31.3998 44.4706 31.4056 44.4745 31.4115L47.9558 38.9954C48.2508 39.6362 48.1531 40.1597 47.8699 40.4841C47.7624 40.6072 47.6276 40.7048 47.4752 40.7752C47.3228 40.8455 47.1627 40.8826 47.0044 40.8846C46.5844 40.8885 46.135 40.6247 45.8459 39.9957L35.2788 16.9744C35.185 16.7712 35.1303 16.5798 35.1108 16.402C35.1362 16.275 35.1381 16.1461 35.1166 16.025C35.1518 15.812 35.2397 15.6304 35.3647 15.4877C35.4722 15.3647 35.607 15.267 35.7594 15.1967C35.9117 15.1263 36.0719 15.0892 36.2302 15.0873C36.6502 15.0833 37.0995 15.3451 37.3887 15.9761L40.8485 23.515C40.8642 23.556 40.8837 23.5971 40.9032 23.6361L40.9052 23.636ZM50.1186 25.0309L52.7286 23.7572C53.2483 23.5032 53.4651 22.878 53.2111 22.3564C52.9572 21.8367 52.332 21.6199 51.8104 21.8739L49.2003 23.1476C48.6807 23.4016 48.4638 24.0267 48.7178 24.5484C48.9718 25.0681 49.5969 25.2849 50.1186 25.0309ZM51.4626 33.2595C50.9 33.1286 50.5503 32.566 50.6812 32.0033C50.8121 31.4407 51.3747 31.091 51.9374 31.2219L55.1979 31.9838C55.7606 32.1147 56.1103 32.6773 55.9794 33.2399C55.8485 33.8026 55.2858 34.1523 54.7232 34.0214L51.4626 33.2595ZM45.9908 14.6143L44.4611 17.7147C44.2052 18.2324 44.4181 18.8595 44.9358 19.1154C45.4535 19.3714 46.0807 19.1584 46.3366 18.6407L47.8662 15.5403C48.1222 15.0226 47.9092 14.3955 47.3915 14.1396C46.8738 13.8837 46.2467 14.0966 45.9908 14.6143Z" fill="white"/>
<defs>
<linearGradient id="paint0_linear_669_2663" x1="2" y1="1.5" x2="88.5" y2="108" gradientUnits="userSpaceOnUse">
<stop stop-color="#5829C7"/>
<stop offset="1" stop-color="white"/>
</linearGradient>
</defs>
</svg>
