<svg width="68" height="68" viewBox="0 0 68 68" fill="none" xmlns="http://www.w3.org/2000/svg">
<rect width="68" height="68" rx="15" fill="url(#paint0_linear_669_2220)"/>
<path d="M13.959 13C13.703 13.0041 13.459 13.1097 13.2805 13.2938C13.1013 13.4767 13.0014 13.7232 13.0028 13.9796C13.0043 14.236 13.1068 14.4815 13.2881 14.6623L18.0546 19.3553L13.2881 24.0463C13.1975 24.136 13.1254 24.2427 13.076 24.3603C13.0265 24.4779 13.0007 24.6042 13 24.7318C12.9993 24.8595 13.0237 24.986 13.0719 25.1042C13.12 25.2224 13.1909 25.3299 13.2805 25.4205C13.4598 25.6033 13.704 25.7075 13.9597 25.7103C14.2154 25.7131 14.4618 25.6143 14.6451 25.4355L19.438 20.716L24.2309 25.4355C24.4142 25.6143 24.6606 25.7131 24.9163 25.7103C25.172 25.7075 25.4162 25.6033 25.5955 25.4205C25.6851 25.3299 25.756 25.2224 25.8041 25.1042C25.8523 24.986 25.8767 24.8595 25.876 24.7318C25.8753 24.6042 25.8495 24.4779 25.8 24.3603C25.7506 24.2427 25.6785 24.136 25.5879 24.0463L20.8214 19.3553L25.5879 14.6623C25.7692 14.4815 25.8717 14.236 25.8732 13.9796C25.8746 13.7232 25.7748 13.4767 25.5955 13.2938C25.4162 13.111 25.172 13.0068 24.9163 13.004C24.6606 13.0012 24.4142 13.1 24.2309 13.2788L19.438 17.9945L14.6451 13.2788C14.4623 13.0984 14.2155 12.998 13.959 13ZM48.9413 13.2938C48.888 13.2944 48.8349 13.2995 48.7825 13.3089C48.7519 13.3144 48.7217 13.3213 48.6918 13.3298C48.6695 13.3353 48.6475 13.3417 48.6256 13.3488C48.5955 13.3587 48.5658 13.3701 48.5368 13.3829C48.5143 13.3941 48.4922 13.4061 48.4707 13.4189C48.4207 13.4468 48.3732 13.4792 48.3289 13.5155C48.3114 13.5289 48.2944 13.5428 48.2779 13.5572C48.2539 13.5807 48.2312 13.6053 48.2098 13.6311C48.2009 13.6405 48.1921 13.65 48.1835 13.6598L43.0901 20.0699C42.9301 20.2709 42.8562 20.5272 42.8846 20.7827C42.9129 21.0382 43.0412 21.272 43.2413 21.4327C43.3411 21.5126 43.4557 21.5719 43.5785 21.6071C43.7012 21.6424 43.8297 21.6529 43.9566 21.6381C44.0834 21.6233 44.2061 21.5834 44.3175 21.5209C44.429 21.4583 44.5269 21.3742 44.6058 21.2735L47.9699 17.0373V22.3425C47.9699 25.4273 45.0023 29.5108 41.8406 29.5108H37.4739H28.6131C24.4316 29.5108 21.0136 32.8595 21.0136 37.0052V40.5799C17.4365 41.0514 14.6483 44.0865 14.6483 47.7577C14.6483 51.7554 17.9541 55 21.985 55C26.016 55 29.32 51.7554 29.32 47.7577C29.32 44.084 26.5295 41.0463 22.9489 40.578V37.0052C22.9489 33.9204 25.4514 31.4536 28.6131 31.4536H37.4739H41.8406C46.0221 31.4536 49.9052 26.4882 49.9052 22.3425V17.0278L53.2769 21.2735C53.4361 21.4747 53.6683 21.6045 53.9226 21.6343C54.177 21.6642 54.4328 21.5917 54.6339 21.4327C54.8348 21.2728 54.9642 21.0394 54.9936 20.7839C55.023 20.5284 54.9501 20.2716 54.7908 20.0699L49.6974 13.6598C49.5986 13.5368 49.4715 13.4399 49.3269 13.3773C49.3119 13.3712 49.2968 13.3655 49.2816 13.3601C49.2415 13.3447 49.2005 13.3321 49.1587 13.3222C49.1424 13.318 49.126 13.3142 49.1096 13.3108C49.0541 13.3001 48.9977 13.2946 48.9413 13.2938ZM43.0766 38.466C42.8205 38.4701 42.5766 38.5757 42.3981 38.7598C42.2195 38.9434 42.1207 39.1903 42.1232 39.4468C42.1256 39.7032 42.2292 39.9482 42.4112 40.1283L47.1777 44.8231L42.4112 49.5199C42.2289 49.6997 42.1251 49.9446 42.1222 50.201C42.1194 50.4575 42.2179 50.7046 42.3962 50.8884C42.4853 50.9799 42.5915 51.0529 42.7088 51.1031C42.826 51.1533 42.952 51.1798 43.0795 51.1811C43.2071 51.1823 43.3335 51.1582 43.4518 51.1103C43.57 51.0623 43.6775 50.9914 43.7683 50.9016L48.5594 46.184L53.3485 50.9016C53.4393 50.9911 53.5467 51.0618 53.6648 51.1096C53.7828 51.1574 53.9091 51.1813 54.0363 51.1801C54.1636 51.1789 54.2894 51.1525 54.4065 51.1024C54.5236 51.0524 54.6297 50.9796 54.7187 50.8884C54.8973 50.7048 54.9961 50.4578 54.9936 50.2014C54.9912 49.945 54.8876 49.7 54.7056 49.5199L49.9391 44.8231L54.7056 40.1283C54.8876 39.9482 54.9912 39.7032 54.9936 39.4468C54.9961 39.1903 54.8973 38.9434 54.7187 38.7598C54.6294 38.6677 54.5228 38.5944 54.4051 38.5439C54.2873 38.4935 54.1607 38.467 54.0327 38.466C53.7769 38.4645 53.5309 38.5647 53.3485 38.7446L48.5594 43.4641L43.7683 38.7446C43.6771 38.6546 43.569 38.5837 43.4503 38.5358C43.3316 38.488 43.2045 38.4643 43.0766 38.466ZM21.9849 42.4562C24.989 42.4562 27.3845 44.8282 27.3845 47.7576C27.3845 50.687 24.989 53.059 21.9849 53.059C18.9809 53.059 16.5835 50.687 16.5835 47.7576C16.5835 44.8282 18.9809 42.4562 21.9849 42.4562Z" fill="white"/>
<defs>
<linearGradient id="paint0_linear_669_2220" x1="2" y1="1.5" x2="88.5" y2="108" gradientUnits="userSpaceOnUse">
<stop stop-color="#5829C7"/>
<stop offset="1" stop-color="white"/>
</linearGradient>
</defs>
</svg>
