<svg xmlns="http://www.w3.org/2000/svg" id="Layer_1" data-name="Layer 1" viewBox="0 0 841.89 595.28"><defs><style>.cls-1{fill:#f7941d;}.cls-2,.cls-7,.cls-8{fill:#231f20;}.cls-3,.cls-5,.cls-6{fill:none;}.cls-3,.cls-5,.cls-8,.cls-9{stroke:#231f20;}.cls-3,.cls-5,.cls-7,.cls-8,.cls-9{stroke-miterlimit:10;}.cls-4,.cls-9{fill:#726658;}.cls-5{stroke-width:2px;}.cls-7{stroke:#000;}</style></defs><title>drone final illustator</title><path class="cls-1" d="M399.85,315.82l-.08.06-.17-.43Z"></path><path class="cls-1" d="M446.55,298.06h0a.44.44,0,0,1-.11.12l-.95-.19-.82-1.06c.52-.37,1-.72,1.57-1.06a2.36,2.36,0,0,0,.21.38A1.38,1.38,0,0,1,446.55,298.06Z"></path><path class="cls-1" d="M456.93,300.49l-1.15-.6-.63-.32c2.09-4.05,1.93-6,1.64-6.26-.07-.05-.32-.09-1.21.19l-.57.19a37.67,37.67,0,0,0-8.46,4.37h0a.6.6,0,0,1-.28.19c-.46.13-1.1-.4-1.6-1.32.52-.37,1-.72,1.57-1.06a39,39,0,0,1,8.11-4.07,9.19,9.19,0,0,1,1.51-.45,3.69,3.69,0,0,1,.72-.08,2.2,2.2,0,0,1,1.45.45C460.22,293.44,458,298.43,456.93,300.49Z"></path><path class="cls-1" d="M414.83,276c0,.22,0,.45,0,.69l-.25,0A2.57,2.57,0,0,1,414.83,276Z"></path><path class="cls-1" d="M455.13,300.82l-1.58-1.22c-4.91-1.65-6-2.59-5.94-3.16.17-1.13,5.11-.72,7.57-4.24.19-.27.32-.5.41-.65l.69.12.72.09a1.14,1.14,0,0,1,.26.53C458.93,295.74,455.54,300.3,455.13,300.82Z"></path><path class="cls-1" d="M420.66,282.36c9.68,3.95,20.65,8.42,22.33,10.83.05.11.13.32.23.59.23.63.47,1.25.69,1.8l-.57-.44a20.84,20.84,0,0,0-3.38-2.25,118.73,118.73,0,0,0-13.44-5.11,80.43,80.43,0,0,1-15.91-6.71l-.46-.26-1.75-1a28.34,28.34,0,0,1-3.22-2.17c-.38-.29-.73-.55-1.07-.77l.48-.35,2-1.15a54.64,54.64,0,0,1,6.64-3.57c0,.43-.08,1.17-.16,1.83s-.14,1.24-.21,2a3.66,3.66,0,0,0-.36,2.13C412.67,278.91,413.29,279.35,420.66,282.36Z"></path><path class="cls-1" d="M439.62,262.66s7.74-2,8.27-4.19a1.28,1.28,0,0,0-.06-.63,1.13,1.13,0,0,0-.7-.72c-2.51-1-24.88,4.15-42.7,14.14a157.25,157.25,0,0,0-23.31,16.64c-1.43,1.23-2.53,2.24-4.69,4.23-5.27,4.84-10.29,10.62-19.41,21.12a9.7,9.7,0,0,0-1.9,3.16,10,10,0,0,0-.13,6.08l1-.29.78.64c9.11-11.13,14.27-16.86,25.41-25.08l.52-.38a9.08,9.08,0,0,0,1.3,1c3.48,2.24,11,9.31,14.16,16.21-3.48,2.39-6.95,4.85-10.34,7.33-3,2.17-6,4.42-8.89,6.67l1.22,1.59a7.83,7.83,0,0,1,2.84.62c3,1.28,3.12,3.68,4.9,3.94s2.81-2.2,6.93-5.14A26.55,26.55,0,0,1,399.3,327a13,13,0,0,0,.77-1.19,10.77,10.77,0,0,0,.62-1.22l.93.37c.44-.37.92-.8,1.4-1.29a17.14,17.14,0,0,0,1.56-1.87l32.34-20.22,1.68.45c.29-.33.45-.29.59-.39a.67.67,0,0,0,.21-.35c.17-.56,3.83-2.18,4-3.56.09-.78-.9-1.5-2-2.29a8.72,8.72,0,0,0-2.5-1.25l-10,5.65c-2,1.31-3.64,2.36-4.72,3,0,0-14.41,9.2-17.88,12a24.09,24.09,0,0,1-2,1.44,1,1,0,0,1-.37.15c-.57.14-1.95-1.16-2.65-2.12l0,0c-.16-.35-.35-.74-.56-1.13a57,57,0,0,0-7.92-9.69l0,0a45.12,45.12,0,0,0-7.74-6.8c-.43-.28-1.75-1.14-1.94-2.28-.05-.29-.19-1.15,1.82-3.51a20.25,20.25,0,0,1,4.46-3.79c1.17-.82,2.61-1.84,4.6-3.34,1.3-1,2.47-1.85,3.38-2.48.53-.38.82-.57,1.21-.83s.93-.62,2-1.33l1.05-.72.4-.28c.42-.05.89.27,2,1.11a33.17,33.17,0,0,0,3.42,2.29l1.75,1,.48.28a82.38,82.38,0,0,0,16.26,6.86,119.2,119.2,0,0,1,13.24,5,35.48,35.48,0,0,1,4.74,3.4l.2.18c.46.36.65.31.71.27.35-.21-.07-1.46-.12-1.62.52-.37,1-.72,1.57-1.06-.37-.75-.91-2.19-1.14-2.8a5.09,5.09,0,0,0-.38-.93c-1.64-2.52-8.21-5.49-23.3-11.64-2.06-.84-6.29-2.57-6.94-3.15a5,5,0,0,1,.07-.66C415.93,268.38,437.08,263.27,439.62,262.66Zm-39.77,53.16-.08.06-.17-.43Z"></path><path class="cls-1" d="M418.9,241.55h0Z"></path><path class="cls-1" d="M430.85,247.41c-1.55-2.17-6.46-5.3-12-5.86h-.06a5.82,5.82,0,0,0-.73-.07,25.47,25.47,0,0,0-7.63.94,32.77,32.77,0,0,0-5.62,1.93c-12.08,5.28-17.79,8.55-17.84,8.58a213.41,213.41,0,0,0-24.68,16.79c-6.23,4.76-10.74,8.2-15.63,13.23a111.57,111.57,0,0,0-11.09,13.47,2.49,2.49,0,0,1-.19.23c-.5.58-1.17,1.37-.56,2.13.74.91,1.74.38,5.36-2.11,3.24-2.22,6.06-4.49,8.54-6.49,5.06-4.08,8.72-7,11.85-6.4a17.47,17.47,0,0,1,1.73.5,13.17,13.17,0,0,1,5.74,3.19l-2.22,1.8c-6.09,5-9.14,7.46-11.46,9.63a27.77,27.77,0,0,1-2.25,1.93c-.63.48-1.23,1-1.82,1.43a20.92,20.92,0,0,1-5,3.31l.69,1.88a22.22,22.22,0,0,0,5.52-3.63l1.79-1.4a29.78,29.78,0,0,0,2.47-2.12c2.2-2.06,5.24-4.54,11.32-9.5,1.6-1.3,5.86-4.75,11-8.62A256.67,256.67,0,0,1,400,267c9.84-6,14.64-8.76,18.92-10.26a29.47,29.47,0,0,0,5.71-3,28.74,28.74,0,0,1,5.12-2.72,2.38,2.38,0,0,0,1.63-1.45A2.56,2.56,0,0,0,430.85,247.41ZM377,280.58c-2.78,2.09-5.3,4.06-7.3,5.64a15,15,0,0,0-6.73-3.86l-.51-.16h0c-1.64-1-2.47-2.21-2.34-2.86a4.6,4.6,0,0,1,1.2-1.65l.07-.07a7.6,7.6,0,0,1,1.06-.91c2.77-2,5.52-3.95,8.27-5.94,2.56-1.85,5.18-3.74,7.82-5.61.68.41,1.6.94,2.67,1.54.71.41,1.09.62,1.41.79l1.1.62c.91.52,1.44.85,2.25,1.35l1.74,1.07,1.68,1C384.68,274.76,380.67,277.79,377,280.58Zm52.12-31.42a31.3,31.3,0,0,0-5.47,2.89,27.68,27.68,0,0,1-5.32,2.79c-4.43,1.55-9.29,4.33-19.16,10.35-.47-.19-.93-.4-1.38-.61-1.09-.52-2.42-1.25-3.4-1.78-.69-.37-1.24-.67-1.49-.79a7,7,0,0,1-.77-.4l-.17-.1-.42-.25c1.6-.31,3.86-2.26,7.26-5.2a99.9,99.9,0,0,1,8.09-6.5,46.32,46.32,0,0,1,12.2-6c5.46.7,10.12,4.21,10.41,5.42A2.39,2.39,0,0,1,429.08,249.16Z"></path><path class="cls-1" d="M399.85,315.82l-.08.06-.17-.43Z"></path><path class="cls-1" d="M345.37,274.24l-.05,2a14.86,14.86,0,0,1-2-.18l-.57-.1c.66-.52,1.4-1.09,2.24-1.73Z"></path><path class="cls-1" d="M406.15,239.08c-4.84,2-9.64,4.21-14.26,6.57-6.05,3.09-10.33,5.66-16.26,9.23-3,1.79-5,3.08-7.23,4.58-2.53,1.7-4.29,3-7,5-10,7.4-15.49,11.48-18.57,14l-.42.35c-1.11.9-2.95,2.38-5.5,4.38-2.22,1.74-3.86,3-4.83,3.74l-.69.53a82,82,0,0,0-11.29,10.85l-1.5-1.33a84.71,84.71,0,0,1,11.57-11.1l.69-.54c1-.74,2.61-2,4.82-3.72,2.54-2,4.36-3.47,5.47-4.37l.43-.34,1.13-.9.57.1a14.86,14.86,0,0,0,2,.18l.05-2-.38,0c3.32-2.54,8.16-6.13,15.26-11.39,2.66-2,4.44-3.29,7-5-.38-.55-.8-1.08-1.23-1.6s-1.12-1.33-2.3-2.55a16.46,16.46,0,0,0-4.11-3.37,1.75,1.75,0,0,0-1-.31c-.68,0-1.41,1-1.65,1.43l-1.77-.92s1.24-2.39,3.3-2.51a3.75,3.75,0,0,1,2.07.55,18.26,18.26,0,0,1,4.6,3.73c1.23,1.28,2,2.23,2.41,2.68s.92,1.16,1.35,1.75l2.13-1.36c-1.56-1.85-3-3.49-4.35-4.89,0,0-.62-.67-2-1.92a16.52,16.52,0,0,0-2.58-2.06A3,3,0,0,0,361,246a5.33,5.33,0,0,0-1.85.11l-.08-1.91a4.69,4.69,0,0,1,2.31-.16,4.94,4.94,0,0,1,1.79.77,19.3,19.3,0,0,1,2.88,2.29c1.4,1.31,2,2,2.06,2,1.4,1.48,2.95,3.23,4.6,5.2l1.88-1.14c6-3.59,10.26-6.18,16.38-9.31,4.67-2.38,9.51-4.61,14.41-6.63Z"></path><path class="cls-1" d="M345.37,274.24l-.05,2a14.86,14.86,0,0,1-2-.18l-.57-.1c-.46-.09-1-.21-1.76-.43s-1.32-.38-1.86-.54l-1.28-.38c-1-.29-1.77-.5-2.8-.75-.86-.21-1.83-.44-3.13-.64l-.93-.12-1.23-.16c-.87-.14-1.71-.28-2.52-.44l.38-2c.78.15,1.59.29,2.44.42l1.15.15,1,.13c1.38.21,2.44.47,3.29.67,1.08.26,1.84.48,2.89.78l1.31.39c.52.16,1,.3,1.81.52a18,18,0,0,0,2.1.49,12.72,12.72,0,0,0,1.37.14Z"></path><path class="cls-1" d="M399.85,315.82l-.08.06-.17-.43Z"></path><path class="cls-2" d="M340.11,259.76a29.53,29.53,0,0,1-10.45-2l.72-1.87a26.09,26.09,0,0,0,13.68,1.54A19.76,19.76,0,0,0,350.9,255a18.89,18.89,0,0,0,4.32-3.46l1.46,1.37a21,21,0,0,1-4.78,3.82,21.54,21.54,0,0,1-7.49,2.62A24.83,24.83,0,0,1,340.11,259.76Z"></path><path class="cls-2" d="M340.42,257.89c-1.76,0-3.28-.3-3.7-1.35h0c-.79-2,3-4.83,5.19-5.92a13,13,0,0,1,5.15-1.24c.59,0,5.81-.16,6.31,1.91.29,1.24-1.17,2.35-2.58,3.42a15.5,15.5,0,0,1-7.58,3A26.47,26.47,0,0,1,340.42,257.89Zm7.25-7.53-.57,0a11.79,11.79,0,0,0-4.75,1.14c-2.61,1.29-5.07,3.73-4.7,4.65h0c.13.33.92,1,5.45.54a14.37,14.37,0,0,0,7.09-2.8c.93-.71,2.35-1.78,2.2-2.38S349.88,250.36,347.67,250.36Z"></path><path class="cls-2" d="M337.71,256.65l-.54-.84a26.74,26.74,0,0,1,13.47-4.56c.75,0,1.51,0,2.26,0l0,1c-.73,0-1.46,0-2.18,0A25.79,25.79,0,0,0,337.71,256.65Z"></path><path class="cls-2" d="M332.86,256.93a2.6,2.6,0,0,1-1.28-.37,2.77,2.77,0,0,1-1.26-2.09l1-.09a1.8,1.8,0,0,0,.78,1.32,1.41,1.41,0,0,0,1.07.18c.47-.15.75-.65,1.06-1.41a20.15,20.15,0,0,0,1.22-5l1,.11a21.25,21.25,0,0,1-1.28,5.25,3,3,0,0,1-1.68,2A2.25,2.25,0,0,1,332.86,256.93Z"></path><path class="cls-3" d="M304.17,325.71a44.16,44.16,0,0,1,11.6-3.5"></path><path class="cls-3" d="M321.57,321.7a7.81,7.81,0,0,1,5.29,2.9,6.28,6.28,0,0,1,1,2.9c.85,6.75-.06,11.47,1,16.89.44,2.22.28,4,1.53,4.95.84.66,1.63.58,4.35,1.11,1.13.21,2.18.48,4.27,1a90.52,90.52,0,0,1,9.13,2.9h0c.62-.42,1.56-1.05,2.73-1.79,2.85-1.82,5.06-3.07,5.77-3.47,3.57-2,10.58-6.12,14.16-8.36a110.62,110.62,0,0,0,13-9.55"></path><path class="cls-3" d="M351.94,371.86c-.3,0-.65-.08-1.36-.69a9.08,9.08,0,0,1-2.14-2.64,14.71,14.71,0,0,1-1.79-5.2c-.13-1-.68-5.31,1.74-8.7.47-.67.94-1.13,11-6.09,1.3-.64,2.7-1.32,4.61-2.16,5.17-2.28,3.61-1.56,6-2.61a4.48,4.48,0,0,1,2.48-.42l.05,0c3.82.39,1.22,2.27,1.14,14"></path><path class="cls-3" d="M364,364.69c-3,.51-11,6.23-12,7.17"></path><path class="cls-3" d="M351.74,352.75l3.51,2.28a.57.57,0,0,0,.52.06c5.1-1.86,10-4.17,15.12-6a.33.33,0,0,0,.14-.53A18,18,0,0,0,369.7,347a2.4,2.4,0,0,0-2.63-.58c-4.6,1.84-11.32,4.61-15.33,6.2"></path><path class="cls-3" d="M352.2,381.92c0-3.34-.26-6.72-.26-10.06"></path><path class="cls-3" d="M351.6,352.41c0,1.64-.09,3.36-.13,4.26,0,.36-.09.49,0,.64a4.88,4.88,0,0,0,3.93,2.6c.2,0,2.92-1.19,3-1.23"></path><path class="cls-3" d="M355.49,355.19l-.09,4.72"></path><path class="cls-3" d="M371.08,348.79a15.73,15.73,0,0,1,.14,2.81,10.08,10.08,0,0,1-.06,1.09c-.09.64-.62,1.08-3.33,2"></path><path class="cls-3" d="M364.59,363.72a7.76,7.76,0,0,1,2.51-3.86,7.64,7.64,0,0,1,4.2-1.71"></path><ellipse class="cls-3" cx="355.38" cy="352.69" rx="0.8" ry="0.34"></ellipse><ellipse class="cls-3" cx="367.83" cy="347.8" rx="0.63" ry="0.34"></ellipse><path class="cls-3" d="M326.72,369.18A8.35,8.35,0,0,1,328.2,364,8.69,8.69,0,0,1,329,363c2.89-2.75,11.95-1.1,17.46,4,1.48,1.37,2.16,2.14,2.85,2.79"></path><path class="cls-3" d="M347.33,365.8a29.34,29.34,0,0,1,5.8-4.44,33.72,33.72,0,0,1,3.5-1.79"></path><path class="cls-3" d="M373.69,357.41c-.62-.68-2.44-3.47-3.07-4.15"></path><path class="cls-3" d="M357.27,368.19c.22,3.75.28,7.59.5,11.34"></path><path class="cls-3" d="M385.89,334.84l1,14.92"></path><path class="cls-3" d="M413.5,236.68c3.16-.19,6.54-.25,10.12-.11,1.36.05,2.69.13,4,.23"></path><path class="cls-3" d="M447.28,257.84a42.8,42.8,0,0,1,6.94-.91c5-.25,9.43.19,9.44.57s-9.07,1.58-11.49,2.38a13.87,13.87,0,0,1-2.8,1.05c-.22,0-.45.07-.5.21-.2.53,2.51,2,3.07,2.27,6.88,3.78,16.55,17.78,16.61,17.86h0c.1.17.87.11,2.9-.69a44,44,0,0,0,5.63-2.73c3-1.75,5.79-3.15,6.65-3.58,2.25-1.12,5.21-2.63,9-4.6"></path><path class="cls-3" d="M457.52,299.24a16.26,16.26,0,0,0,3.35,4.55c.7.48,4.55-11.39,5.8-15.87.41-1.48,1.08-3.74,2.05-6.48"></path><path class="cls-3" d="M474.92,305.72c1.07.72,4.67,3,7.73,1.59a6.75,6.75,0,0,0,2.05-1.59,31.23,31.23,0,0,0,5-6.6"></path><path class="cls-3" d="M480.94,307.88l-.11,7.85"></path><path class="cls-3" d="M490.67,303.62a6.07,6.07,0,0,0-2.5.63,6.14,6.14,0,0,0-2.22,2.32c-1,1.6-1.4,6.05-.8,6.43s.76-.23,1.82.23c.47.19.45.36,1,.79a8.37,8.37,0,0,0,4,1.37h0a32.64,32.64,0,0,1,.45-3.53,7.67,7.67,0,0,1,1.37-3c1.51-1.87,3.45-1.79,3.52-2.5S496.69,305.23,490.67,303.62Z"></path><path class="cls-3" d="M375.4,228.55l6.65,1.45"></path><circle class="cls-3" cx="410.19" cy="349.83" r="0.24"></circle><circle class="cls-3" cx="417.61" cy="354.55" r="0.24"></circle><circle class="cls-3" cx="409.18" cy="360.23" r="0.24"></circle><circle class="cls-3" cx="393.72" cy="360.65" r="0.24"></circle><circle class="cls-3" cx="385.42" cy="366.57" r="0.24"></circle><circle class="cls-3" cx="392.59" cy="371.57" r="0.24"></circle><circle class="cls-3" cx="398.73" cy="374.07" r="0.24"></circle><circle class="cls-3" cx="401.33" cy="366.24" r="0.24"></circle><circle class="cls-3" cx="404.06" cy="370.21" r="0.24"></circle><circle class="cls-3" cx="413.16" cy="363.95" r="0.24"></circle><circle class="cls-3" cx="418.5" cy="344.1" r="0.24"></circle><circle class="cls-3" cx="401.96" cy="355.27" r="0.24"></circle><circle class="cls-3" cx="417.07" cy="359.87" r="0.24"></circle><path class="cls-3" d="M369.06,370.75c.8.7,1.84,1.55,2.59,2.3.14.14-.22-.22,2.55,2.22,3.86,3.38,4,3.59,5.92,5.23,1.13,1,.87.7,3.3,2.73,1.67,1.39,2.22,1.87,3.52,3,1.95,1.62,3.38,2.78,3.59,2.95,2,1.66,16.75,14.38,59.71,51.7"></path><path class="cls-3" d="M357.49,380.73c1.53-3.38,4.92-1.11,5.75-.68,2.78,1.4,4.52,0,5-.91a2.66,2.66,0,0,0,.23-.69,7.51,7.51,0,0,0,.11-2.78c-.21-2.08-.52-3-.47-3.9,0-.65.4-1.61,1.31-.69"></path><path class="cls-3" d="M360.94,377.57c.51-.1.9.13,2.05.77a4.39,4.39,0,0,0,3.37.64c.82-.33,1.19-2.12,1-3.37s-.79-4.1-.34-5.29c.13-.34.72-1.47,1.65-1.48a1.72,1.72,0,0,1,1.2.63"></path><path class="cls-3" d="M339.34,376.35,335.7,409.1h2.62c.53-5.15,2.75-26.68,3.29-31.83v-.13"></path><path class="cls-3" d="M346.48,405.64c.6-5.75,2-18.49,2.65-24.23"></path><path class="cls-3" d="M348.44,405c.49-5.66,1.91-17.2,2.39-22.86"></path><path class="cls-3" d="M346.65,388.53c-.34,5.29-.67,7.1-1.41,7.72a16.43,16.43,0,0,1-1.66,1.11c-1.73,1-3.36,1.85-4.31,2.39"></path><path class="cls-3" d="M341.06,383.12q2.35,1.94,4.87,3.83a1.88,1.88,0,0,1,.51.39,3.18,3.18,0,0,1,.21,1.49"></path><path class="cls-3" d="M374.44,344.28c3.61-2.09,6.37-3.94,10-6.48a7.17,7.17,0,0,0,.83-.77,4.1,4.1,0,0,0,.72-1.49"></path><path class="cls-3" d="M330.42,349c1,0,.52.74,3-2.17.3-.34,7.58-7.94,9.3-9.86,4.43-5,13.73-13.22,13.73-13.22a14.41,14.41,0,0,1-2.61-2.73.44.44,0,0,0-.12-.12c-.46-.23-5.17,5.09-6.54,6.6-.28.31-6.18,6.6-6.88,7.34-3.11,3.3-9.82,10.66-10.69,12.17C329.25,347.65,329.78,349,330.42,349Z"></path><path class="cls-3" d="M298.12,323.23c.88-1.44,2.1-3.4,3.58-5.71.56-.87,2.62-4.08,4.35-6.57a115.26,115.26,0,0,1,8.87-11.17"></path><path class="cls-3" d="M275.77,313.08c6.63,5.47,9.59,7.73,11,8.7.85.59,1.64,1.26,2.47,1.88a8.54,8.54,0,0,1,2.56,2.39,5.77,5.77,0,0,1,.69,1.62"></path><path class="cls-3" d="M269.62,323.23a60.85,60.85,0,0,1,6.23,4.1c.28.21,1.63,1.23,3.33,2.73.39.34,1.77,1.57,3.58,3.41,3.53,3.59,7,7.8,8.19,9.3"></path><path class="cls-3" d="M483.22,315.39l3.41,1.53c1.38.64,2.58,1.15,3.5,1.54,2.76,1.15,3.13,1.28,4.24,1.39.88.09,1.93-.39,3-.31a14.82,14.82,0,0,1,3.24.85c1.23.39,8.53,2.9,10.81,3.75,6.94,2.61,38.52,13.62,72,25.62,6.87,2.47,17,6.07,29.43,10.41"></path><path class="cls-3" d="M484.75,314.08c1.95,1,3.43,1.57,4.38,2,.57.26,3.64,1.58,3.87,1.65,1.34.38,2.27-.07,3.87.11a10,10,0,0,1,2,.46"></path><path class="cls-3" d="M316,398q1.37-14.2,3.07-28.66a16.14,16.14,0,0,0,.51-4.27,14.47,14.47,0,0,0-.17-1.7"></path><path class="cls-3" d="M326.56,369.72a5.08,5.08,0,0,1-2.64,2.35,4.56,4.56,0,0,1-3.41-.81,3.66,3.66,0,0,1-1.45-2.09"></path><path class="cls-3" d="M289.67,350.57a2.87,2.87,0,0,0-.72,1.84,2.77,2.77,0,0,0,.46,1.58,3.65,3.65,0,0,0,2.22,1.28,5.52,5.52,0,0,0,2.77.12,3.17,3.17,0,0,0,2.31-1.28,2.6,2.6,0,0,0-.6-3.11.77.77,0,0,0-.51-.13"></path><path class="cls-3" d="M296.58,337.57l25.25,14.84"></path><path class="cls-3" d="M326.78,354.63c.87,1.14,1.07,1.51,1.33,1.39.48-.23.28-2.48-1.33-7"></path><path class="cls-3" d="M295.9,337.05c10.94.92,15.75.76,17.94.32.26-.05,1.05-.22,1.17,0,.29.62-4.59,3.7-8.45,6"></path><path class="cls-3" d="M317.39,349.68l4.7-4.18"></path><path class="cls-3" d="M328.23,356c-.2,2.11-1.17,9.53-1.37,11.63"></path><path class="cls-3" d="M302.59,365.67a16.41,16.41,0,0,0,2.65,2.86,4.09,4.09,0,0,0,2.26,1.24c1,.15,1.9-.48,3.5-1.5,2-1.29,7.09-5.53,7.12-5.5s-.54.13-.51.3,1.2.17,1.4.51c.08.12,1.43-.5.26.43-1.41,1.11-3,2.4-3.11,2.51a55.85,55.85,0,0,1-7.55,5.17,3.49,3.49,0,0,1-3.37-.73c-1.66-1.43-3.7-3.54-4.31-4.18"></path><path class="cls-3" d="M274.52,315.56c-1.86-.7-5.94-2.24-10.53-3.93-13.4-4.92-23.48-8.32-25.59-9-9-3.08-38.37-13.54-127.26-45.89"></path><path class="cls-3" d="M359.87,394.89c-.08,5.33-.3,4.48.3,8.74,0,.12-.05.36,0,.47"></path><path class="cls-3" d="M360.43,385.89a15.88,15.88,0,0,1,1.87-6.36"></path><path class="cls-3" d="M358.25,384.05a17.63,17.63,0,0,1,.47-1.87,31.94,31.94,0,0,1,1.32-3.24"></path><path class="cls-3" d="M365.29,374.8a16.71,16.71,0,0,0-2.43,3.5"></path><path class="cls-3" d="M347.76,406c4.66,3.12,21.75,13.22,24.06,13.36,1.68.1,3.46-.45,6.14-2.44,1.09-.82,2-1.52,2.56-2"></path><path class="cls-3" d="M386.49,411.32c2.95-2.15,6.56-4.71,9.81-6.88q3.4-2.28,6.74-4.35"></path><path class="cls-3" d="M412.13,393.07c2.49-1.52,4.55-2.81,6-3.76,10.7-6.77,15.54-10.47,17.29-11.82.43-.34,1.42-1.95,2.16-1.71.53.17.65,1.16.68,1.48.12,1-1.53,4.36-23.65,18.2"></path><path class="cls-3" d="M380.52,418.39c-2,1.45-5.81,4.15-6.83,4.43a6.09,6.09,0,0,1-3.92-.42c-3.17-1.23-13.62-7.12-27.38-15.57"></path><path class="cls-3" d="M404.91,401.5c-.85.57-2.18,1.46-3.79,2.56-8.15,5.54-8.89,6.41-14.33,10"></path><path class="cls-3" d="M372.61,423c.68.93,2,2.34,3.24,2.21"></path><path class="cls-3" d="M360.27,355.65c4.62,3.9,11.76,9.94,20.47,17.4,9.57,8.2,16.64,14.34,19.11,16.49,9.85,8.56,27.46,23.82,61.53,53.23"></path><path class="cls-3" d="M356.29,534.27a3.06,3.06,0,0,1,1.79,2,1.37,1.37,0,0,1,0,.28c0,1.17-1.25,2.09-1.65,2.37"></path><path class="cls-3" d="M401,512.9c7.71-6,26.47-18.91,69.91-47"></path><path class="cls-3" d="M358.11,536.51c.68,0,1.38,0,2.1-.11a30.94,30.94,0,0,0,11.69-3.58c5.92-3,12.32-7.23,25-16.8"></path><path class="cls-3" d="M393.23,514.22a3.67,3.67,0,0,1,3.07.9,3.39,3.39,0,0,1,.76,1.19c.38.9.06,2.07.3,2.26.53.41,3-.92,3.71-2.68s.13-3.77-1.87-5.33"></path><path class="cls-3" d="M392.93,506.59a5.2,5.2,0,0,0,4,0,4.79,4.79,0,0,0,1.75-1.32"></path><path class="cls-3" d="M384,442.43a7.21,7.21,0,0,1,3.19,1c.41.26,3.57,2.21,2.95,4.44-.45,1.62-3.06,2.14-4.77,1.59-.65-.21-.75,0-1-.34"></path><path class="cls-3" d="M387,443.34a1.81,1.81,0,0,0,.85,0,1.66,1.66,0,0,0,1-.6c.52-.62.23-.36.21-.47"></path><path class="cls-3" d="M476.4,456.53l5.8,4.89"></path><path class="cls-3" d="M468,463.87a3.89,3.89,0,0,1,1.7.74,4.24,4.24,0,0,1,1.37,1.87,5.09,5.09,0,0,1,.39,1.82"></path><path class="cls-3" d="M512.68,430a70.19,70.19,0,0,1-4,5.92,64.42,64.42,0,0,1-6.26,7.16,56.34,56.34,0,0,1-5,4.32"></path><path class="cls-3" d="M253.82,427.3a3.6,3.6,0,0,0,2,2.05,2.46,2.46,0,0,0,1.94.11c.7-.34,1-1.23,1.65-3,.1-.28.17-.52.22-.68"></path><path class="cls-3" d="M251.09,433.33a3.65,3.65,0,0,1,2.16,1.82c.54,1.32-.34,2.54.11,3,.69.63,2.73-.27,3.94-2.11a8,8,0,0,0,1.41-3,18.88,18.88,0,0,0,.59-3.09c.11-.95.22-2.18.22-2.77"></path><path class="cls-3" d="M230.56,406.83l72.33-47.77"></path><path class="cls-3" d="M298.88,355.9a8.62,8.62,0,0,1,4.87,5,7.52,7.52,0,0,1,.25,3.15"></path><path class="cls-1" d="M312.85,311.86c-.35,3.48-.52,5.21.12,6.28,1.61,2.66,5.65,2.92,7.78,2.66.91-.1,3.7-.44,5-2.5a5.41,5.41,0,0,0,.64-3.4,105.75,105.75,0,0,1,.08-13.68,11.59,11.59,0,0,0-5.84-2.42c-1.38-.14-3.46-.36-4.86.89-.78.7-.91,1.47-1.44,4.26C313.07,310.44,313,310.2,312.85,311.86Z"></path><path class="cls-1" d="M442.86,221q-1.32,7.46-2.65,14.89a7.57,7.57,0,0,0,7.87.54,7.31,7.31,0,0,0,3.28-4.28c.38-1.52.15-2.43,0-4.5a42.3,42.3,0,0,1,0-6.66,9.7,9.7,0,0,1-2.06.72A10.35,10.35,0,0,1,442.86,221Z"></path><path class="cls-1" d="M441.48,235.66l2-13.88-4.33-2.2-2.28,13.61Z"></path><path class="cls-3" d="M486,307.08l143.3,51.53"></path><path class="cls-3" d="M466.44,248.24l65.22-45.15.18-.13a7.45,7.45,0,0,1,2.27-1,8.9,8.9,0,0,1,1.65-.22,12.76,12.76,0,0,1,4.55.68"></path><path class="cls-3" d="M458.48,253.12l3.93-2.39"></path><path class="cls-3" d="M269.06,147.86,369.14,237"></path><path class="cls-3" d="M104.14,246.63l174.19,62.1"></path><path class="cls-3" d="M460.36,391.65a5.06,5.06,0,0,1,2.64,2c.32.45,1.1,3.19.09,4.14-.77.73-1.09.91-1.41,1"></path><path class="cls-3" d="M456.69,394.29a2.42,2.42,0,0,1,1.15.09,2.73,2.73,0,0,1,1.24.89,5,5,0,0,1,1,3.37"></path><path class="cls-3" d="M466,395.31a12.38,12.38,0,0,1-4.48,3.67"></path><path class="cls-3" d="M460.36,391.26c.39.14.79.34,1.44.56,1,.34,1.39.34,1.77.15a2.73,2.73,0,0,0,1.05-1.82"></path><path class="cls-3" d="M548.05,375.27a14.42,14.42,0,0,0,2.64.25,14.72,14.72,0,0,0,2.39-.17c4.15-.62,101.94-6.14,101.94-6.14a.94.94,0,0,1,.34.06c.39.16.52.65.59.94a4.68,4.68,0,0,1-.05,2.3"></path><path class="cls-3" d="M655.53,369.25c.82-.81,1.75-1.75,2.24-2.2s2.48-2.22,3-2.56a10.27,10.27,0,0,1,1.48-.88s.42-.21.85-.37a15.77,15.77,0,0,1,4.47-.6"></path><path class="cls-3" d="M665.85,364.86a17.41,17.41,0,0,0,5.88,5.12,18.49,18.49,0,0,0,9.1,2.33,19.8,19.8,0,0,0,7.2-1.73c2.63-1.29,3.94-1.94,4.6-2.73.07-.09.33-.4.52-.34s.21,1,.17,2c-.14,3,.13,3-.09,3.76s-.81,1.76-3.16,3.07a21.33,21.33,0,0,1-9.38,2.56c-7.64,0-14.21-4.64-15.35-6.91-.12-.23-.43-.95-.86-.94s-1.19,1.27-1,2.39a2.12,2.12,0,0,0,.26.76c1.93,3.55,6.65,5.89,6.65,5.89a20.12,20.12,0,0,0,9.21,2.47,18.87,18.87,0,0,0,8.28-1.79,18.37,18.37,0,0,0,6-4.6"></path><path class="cls-3" d="M666.4,357a7.54,7.54,0,0,1-1.77.91c-4.15,1.08-7.18.1-7.74,1.14-.23.43.11.87.54,1.11,1.4.77,3.43.28,7,.14a22,22,0,0,1,5.31.46"></path><path class="cls-3" d="M695.56,355.39c.51-.09,1.62.2,4,0,1.53-.13,3.3-.59,4.1-.54a.94.94,0,0,1,.62.63c.11.45-.33.9-.51,1.08C702.58,357.75,693,358,691.07,358"></path><path class="cls-3" d="M666.7,357.35c.3.45.87,1.33.77,1.54-.18.41-9.64,1.58-10.58.55"></path><path class="cls-3" d="M695,357a31.94,31.94,0,0,0,3.84.06,33.25,33.25,0,0,0,5-.59"></path><path class="cls-3" d="M672.64,390.57a11.14,11.14,0,0,0,0,1.53,1.66,1.66,0,0,0,0,.31,5,5,0,0,0,3.5,2,5.05,5.05,0,0,0,4.06-.87.67.67,0,0,0,.18-.44,9.42,9.42,0,0,0,.05-1.62"></path><path class="cls-3" d="M665.59,393.92c2.43,1.15,4.58,2.09,6.37,2.84,7.53,3.16,7,2.82,7.88,2.56a16.9,16.9,0,0,0,4.69-4.49c.77-1.1,1.82-2.62,3.18-4.66"></path><path class="cls-3" d="M665.37,398.87c3.72,1.56,7.9,3.35,10,4.16s3.58,1.11,4.49.84a4.51,4.51,0,0,0,2.16-1.53c1.2-1.27,2.26-2.85,4-5.15"></path><path class="cls-3" d="M669.52,404.7c1.67.75,3.48,1.48,5.41,2.17.73.26,1.77.69,3.2,1.07a2.31,2.31,0,0,0,.51.13,2.25,2.25,0,0,0,1-.13"></path><path class="cls-3" d="M679.54,399.41c0,1.16.07,3.27.09,4.43"></path><path class="cls-3" d="M679,404v4.06"></path><path class="cls-3" d="M668,414.11a7.41,7.41,0,0,0,.74,1,7.94,7.94,0,0,0,1.53,1.37,7.68,7.68,0,0,0,3.47,1.19,8.54,8.54,0,0,0,5.12-1.42,4.28,4.28,0,0,0,1-.86s0-.05.05-.05,0,.62,0,.71c-.07.9-1.76,2.88-4.46,3.81a8,8,0,0,1-2.88.46,6.16,6.16,0,0,1-2-.37,5.3,5.3,0,0,1-2.73-2.19,4.67,4.67,0,0,1-.71-2.51s.05-.23,0-.25,0,0-.34.45c0,2.45-.06,4.25-.06,4.72,0,.08,0,.23,0,.43a4.35,4.35,0,0,0,.2.82,5.4,5.4,0,0,0,1.34,2.14,4.09,4.09,0,0,0,1.73.88,10.86,10.86,0,0,0,6.11-.63,7,7,0,0,0,.72-.34c2.55-1.41,3.62-4.64,4.06-6.62"></path><path class="cls-3" d="M676.81,419.39c0,.93,0,3.23,0,4.16"></path><path class="cls-3" d="M672.3,420.36c0,1.39,0,2.77,0,4.16"></path><path class="cls-3" d="M482.65,466.31a19,19,0,0,0,5.35,5.12c5.64,3.59,13.94,4.53,19.22,1,2.84-1.92,4.3-4.8,4.89-4.44s-.24,2.58-1.2,4.21a12.3,12.3,0,0,1-3.29,3.19c-4.57,3.22-10.26,2.68-11.66,2.5a21.31,21.31,0,0,1-9.84-4.21c-2.18-1.76-4.48-4.47-4.64-5.3a.92.92,0,0,0-.36-.62.86.86,0,0,0-.69.06c-.29.13-.79,1.32.12,10.86"></path><path class="cls-3" d="M484.19,482.24a21.61,21.61,0,0,0,5.34,2.95,19.5,19.5,0,0,0,6,1.37,22.85,22.85,0,0,0,7.62-1.31"></path><path class="cls-3" d="M499,486.31a1.68,1.68,0,0,1-.17,1C497.36,489,494.3,489,492,488a6.54,6.54,0,0,1-2.28-1.58,2.2,2.2,0,0,1-.13-1.26"></path><path class="cls-3" d="M482.28,486.25c1.6,1.42,3.49,3.09,5.63,4.94,2.75,2.38,3.5,3,4.78,3.24,1.49.32,3-.21,6-1.28,2.42-.86,6.18-2.19,7.4-3.47.07-.07.21-.22.36-.19.57.12.94,3-.34,4.18-.49.43-.76-.09-.94,0-4.26,2.13-6.14,3.58-12.62,5.11-.56.14-2.23-1.44-5.55-4.09-1.78-1.43-3.23-2.62-4.18-3.41"></path><path class="cls-3" d="M486.29,499.86c-6.64-7.68,4.14,3.75,6.37,3.19,5.46-1.37,6.45-2.11,6.6-2.28"></path><path class="cls-3" d="M482.79,511.32a7.16,7.16,0,0,0,2.31,2.14,8,8,0,0,0,3.41.93,13.27,13.27,0,0,0,4.26-.25c4-.88,5.22-3,7.05-3.9a.49.49,0,0,0,.29-.28c.05-.24-.26-.44-1.59-1.39-.39-.28-.52-.37-.63-.32s0,.85-.08,1.62a3.31,3.31,0,0,1-1.2,1.84c-1.65,1.51-5.13,1.7-7.76.21A7.72,7.72,0,0,1,486,509"></path><path class="cls-3" d="M483.94,517.93a10.69,10.69,0,0,0,1.88.86,11.45,11.45,0,0,0,5.8.34,16,16,0,0,0,8.83-5.33"></path><path class="cls-3" d="M485.65,513.67c.06,1.18-.06,3.77,0,5"></path><path class="cls-3" d="M491.66,514.39l.13,4.7"></path><path class="cls-3" d="M522.8,216.18a9.36,9.36,0,0,1,3,1.11,7.34,7.34,0,0,1,3.5,4.15c.13.41.5.93.34,5.23-.12,3.47-.33,4.81.46,5.75a4.5,4.5,0,0,0,2.84.74,5.89,5.89,0,0,0,3-1.2c2.67-1.7,5.85-1.79,6.39-.94a5.62,5.62,0,0,1,.09,1.74s.17-.23.17-.23c0,.35-2.13-.45-4,.46-2.11,1-2,1.3-4.35,2a6.15,6.15,0,0,1-4.18-.26,2.8,2.8,0,0,1-1.54-1.11,6.84,6.84,0,0,1-.59-4.6c.24-2.77.57-5.89-.34-7.77-.67-1.35-2-3.14-7-3.69"></path><path class="cls-3" d="M528.09,213.41c3,1.83,9.51,5.76,9.51,5.76,1.33.87,2.17,1.31,2.81,1.11s1-1,1.28-.9.09.63.13,1.88.21,1.47,0,1.92a2.19,2.19,0,0,1-1.36,1c-1.17.34-2.47-.45-5-2a35.76,35.76,0,0,1-3.59-2.35c-.24-.24-.48-.49-.63-.42-.48.2.38,3.29,1.2,5.89a69.88,69.88,0,0,0,6.48,3.15,2,2,0,0,0,1.62.17,4.13,4.13,0,0,0,1.45-1.15"></path><path class="cls-3" d="M535.54,209.61a19.13,19.13,0,0,0,0,2.26,4.19,4.19,0,0,0,.08.56c.37,1.41,4.31,2.09,5.25,1.75"></path><path class="cls-3" d="M539.9,224.28c0,1,0,3.32,0,4.36"></path><path class="cls-3" d="M540.12,220.45c0,1.23,0,2.47,0,3.71"></path><path class="cls-3" d="M528.37,234.29A55.19,55.19,0,0,0,537,239.9a5.18,5.18,0,0,0,1.45.25,18.66,18.66,0,0,0,4.61-.08"></path><path class="cls-3" d="M532.05,235.16a7.84,7.84,0,0,0,0,1c0,.46.73.68,1,.77a17,17,0,0,0,3.16.88c.26,0,.53.09.79.12,2.32.23,3.26.3,4.84-.36.17-.07.25-.3.3-1.32s.09-1.94.12-2.47"></path><path class="cls-3" d="M537.21,239.94c-.11,1.6-.18,2.83-.29,4.43"></path><path class="cls-3" d="M529.07,239.77a19.37,19.37,0,0,0,4.18,3A24,24,0,0,0,536,244c.69.26,1.31.45,1.66.55a18.93,18.93,0,0,0,5.59.6"></path><path class="cls-3" d="M553.59,196.65a10.22,10.22,0,0,0,3.24-4.35"></path><path class="cls-3" d="M527,190.68a14.43,14.43,0,0,0,2.73,4.09c2.9,3,8.83,4.14,10.15,4.44"></path><path class="cls-3" d="M519.5,205.29c3.65.27,6.47,2.31,7,4.89a5.3,5.3,0,0,1-.34,3.19"></path><path class="cls-3" d="M541.91,186.47c.08,1.06.19,2.37.34,3.87.11,1.16.19,1.75.68,2.21A2,2,0,0,0,545,193c.41-.17.53-.2.62-.34.52-.78.23-1.77.12-3.3-.06-.77-.27-1.82-.29-3.13"></path><path class="cls-3" d="M215.07,389.17a12.71,12.71,0,0,1,0-3.37c0-.24.22-1.28.79-1.28s.85,0,1,.11.3,1.66.34,1.95c.07.59.11.15.36,1.12"></path><path class="cls-3" d="M214.69,406.26a31.48,31.48,0,0,0-.11,3.64c.07,2.89.48,3.46.79,3.75a1.82,1.82,0,0,0,2.39.39,2,2,0,0,0,.68-1.18,24.26,24.26,0,0,1,.8-6.26"></path><path class="cls-3" d="M215,412.76a2.86,2.86,0,0,0,3.33.13"></path><path class="cls-3" d="M226.12,418.6a12.72,12.72,0,0,0,4.44-4.78"></path><path class="cls-3" d="M201.32,411.78a12.79,12.79,0,0,0,1.51,2.81,16.19,16.19,0,0,0,9,5.21"></path><path class="cls-3" d="M228.59,421.67a9.94,9.94,0,0,0,2-2.64"></path><path class="cls-3" d="M200.36,414.93a14.46,14.46,0,0,0,1.71,2.73c2.81,3.54,6.58,4.74,9,5.46"></path><path class="cls-3" d="M205.05,429.26a15.49,15.49,0,0,0,5.72,2.14"></path><path class="cls-3" d="M201.47,433.7l9.21,5.46h0l-.25,4.43h0l-9.05-4.43"></path><path class="cls-3" d="M206.76,446.75l3.67,1.88q-.52,6-1,11.94a17.81,17.81,0,0,1-4.52-2.47,4.39,4.39,0,0,1-.94-.94c-.1-.14-1.36-1.92-.76-3.33s3.32-2.27,3.32-2.27c-.31,1.9-.47,3.07-.55,3.93a3.45,3.45,0,0,0,.13,1.27c.4,1.28,2.09,1.58,3,1.76"></path><path class="cls-3" d="M202.66,465.6a4.93,4.93,0,0,0,2.22,2,5.19,5.19,0,0,0,4.35-.17"></path><path class="cls-3" d="M208.89,431.11c0,.39-.07.93-.11,1.59a2,2,0,0,0,0,.63c.05.26.27.85,1.48,1.36"></path><path class="cls-3" d="M233,412.29a14.07,14.07,0,0,0,1,4.86c.15.39.18.83.36,1.39a14.41,14.41,0,0,1,.62,3.87,25.77,25.77,0,0,1-1.08,8.13,23.68,23.68,0,0,1-8.6,11.69,1.07,1.07,0,0,0-.27.2c-.7.71-1.29,2.74-.75,3.08,1.12.72,6.19-3.9,8.88-8.26a25.25,25.25,0,0,0,2.45-5.17,28.39,28.39,0,0,0,1.25-5.74,22.29,22.29,0,0,0-.06-6.89c-.63-3.8-1.73-4.73-1.76-6.71a5.58,5.58,0,0,1,.34-2"></path><path class="cls-3" d="M83.55,224.85c-.45.4-.74.51-.62,1a4.34,4.34,0,0,0,.28.91,44.1,44.1,0,0,1,3.87,4.83c.59.79.83,1.14,1.36,1.37a3.19,3.19,0,0,0,2.22,0c.38-.13.59-.2.69-.4.2-.43-.32-1-1-2,0,0-.3-.45-1.14-2A12.22,12.22,0,0,1,88.05,225"></path><path class="cls-3" d="M84.07,225.48c.13,0,2.83,4.76,4.2,6.43a1.35,1.35,0,0,0,.63.34,3.7,3.7,0,0,0,2.5,0"></path><path class="cls-3" d="M73.49,212.46c-1.4-2.79-2.42-4.87-2.9-5.8a2.65,2.65,0,0,1-.34-1.37c0-.09,0-.88.34-1.08s1.38.19,4.26,3.24"></path><path class="cls-3" d="M70.25,205.12l2.84,4.38"></path><path class="cls-3" d="M64.45,232.13a18.9,18.9,0,0,0,5.46,5.35,13.79,13.79,0,0,0,5,2.22c2.49.48,5.16.15,5.18.34s-.58.05-.86.45c-.41.6.39,1.37.17,1.94-.38,1-3.84,1-6.88-.06a15.78,15.78,0,0,1-5.34-3.13,17.92,17.92,0,0,1-3.3-3.7"></path><path class="cls-3" d="M69.05,249.53a23,23,0,0,0,5,1.71,24.32,24.32,0,0,0,12-.45"></path><path class="cls-3" d="M65.36,255.39c6.27,2.88,10.93,5,12.74,5.8a3.35,3.35,0,0,0,2.33.34,3.29,3.29,0,0,0,1.65-1.19c1.11-1.39,3.09-4,5.51-7.45"></path><path class="cls-3" d="M72.62,250.83c.06.12-.08.88,0,2a2,2,0,0,0,.61.83,7.6,7.6,0,0,0,3.7,1.19,7.5,7.5,0,0,0,3.89-.8.87.87,0,0,0,.44-.7,13.75,13.75,0,0,0,0-1.68"></path><path class="cls-3" d="M65.7,261.93c4.77,1.78,10.12,4.25,14.9,6,1.25-1,1.13-1.24,1-1.59-.16-.51-.42-1.56-.23-1.48,3.17,1.23-5.86-2.2-15.92-6.71"></path><path class="cls-3" d="M93.9,259.77c.4-.7-1-2.61-2.45-2.71-1.64-.1-2.22.7-2.19,1,.12,1.64,3.55,3.12,4.75,1.88"></path><path class="cls-3" d="M84.58,260.17c1.16.45,2.57.86,3.77,1.3a.33.33,0,0,0,.47-.31,13.62,13.62,0,0,1,.44-3.1"></path><path class="cls-3" d="M88.8,261.39a6.68,6.68,0,0,0,.26,1.92,3,3,0,0,0,1.26,1.54,2.42,2.42,0,0,0,2.73-.32c.23-.22.7-.7.73-1a25.68,25.68,0,0,0,.08-3.56"></path><path class="cls-3" d="M93.82,263.31l.89.43"></path><path class="cls-3" d="M82,265.14l10.15,3.67"></path><ellipse class="cls-3" cx="93.46" cy="266.34" rx="2.89" ry="0.79" transform="translate(-188.02 245.36) rotate(-66.4)"></ellipse><path class="cls-3" d="M91.13,258.87a2.73,2.73,0,0,1-.13-1.32c0-.8.06-.93.17-1,.67-.28,2.08,2.22,1.67,1.62l-.13.09c-.06-.34.1.77-.13,1S91.39,259.39,91.13,258.87Z"></path><path class="cls-3" d="M94.67,265.66a2.8,2.8,0,0,0,2.09-.35,10.21,10.21,0,0,0,1.15-.93,1.25,1.25,0,0,1,1.24,1c.11,1.17-2.82,3-5,2.34a2.92,2.92,0,0,1-.42-.17"></path><path class="cls-3" d="M68.43,275.58c-1,.26-.8,7.85-.8,7.85l-.34-.17a10.29,10.29,0,0,0,3.3,2.9c2.16,1.09,5.14,0,7-1.48,2.08-1.59,5.39-8.71,4.21-6.37h0c-1.39-.57-.77-1.26-.77-1.26a3.16,3.16,0,0,0-.71-1,7.34,7.34,0,0,1-6.88,3.08C69.62,278.71,69.09,275.4,68.43,275.58Z"></path><path class="cls-3" d="M67.63,278a8.88,8.88,0,0,0,1.65,2.22,6.22,6.22,0,0,0,4.78,1.19c3.93-.39,6.2-3.94,6.54-4.49"></path><path class="cls-3" d="M82.47,262.5l10,4.15"></path><path class="cls-3" d="M259.84,129.77c.33,1.32.51,2.53.83,3.87.1.41.27,1.22.62,2.53a2,2,0,0,0,.54,1.14,2.43,2.43,0,0,0,1.2.31,2.33,2.33,0,0,0,1.08-.11c.76-.46-.15-2.45.17-5.07a9.17,9.17,0,0,1,.51-2.1"></path><path class="cls-3" d="M259.27,129.54c.2,1,.39,2,.57,3.07.09.51.25,1.72.52,3.19.31,1.76.48,2,.73,2.27a2.23,2.23,0,0,0,2.9.06,1.51,1.51,0,0,0,.35-.91"></path><path class="cls-3" d="M274,160.31a7.82,7.82,0,0,1,1.27-4.1,6.27,6.27,0,0,1,3.16-2.64,5.77,5.77,0,0,1,2.39-.26"></path><path class="cls-3" d="M269,142.82a15.23,15.23,0,0,0,2.47-1.28,14.36,14.36,0,0,0,4.1-4.09"></path><path class="cls-3" d="M247.45,136.08a12.19,12.19,0,0,0,1.11,1.62,13.1,13.1,0,0,0,3.75,3.16"></path><path class="cls-3" d="M246.25,140.09a12,12,0,0,0,3.93,4.1"></path><path class="cls-3" d="M276.51,140.63c-.17,1-2,2.45-2.45,3.47a3.92,3.92,0,0,0,.94,4.52,26.18,26.18,0,0,0,2.33,2.28"></path><path class="cls-3" d="M270.9,169.18a6.59,6.59,0,0,0,2.65.6,4.38,4.38,0,0,0,2.73-.6c1.89-1.43,1-5.35,1.62-5.46.25,0,.52.48.77.94a2.8,2.8,0,0,1,.51,2.47,5.68,5.68,0,0,1-2.3,4.1,5.89,5.89,0,0,1-3.25.77,8.35,8.35,0,0,1-2.73-.43"></path><path class="cls-3" d="M247.56,156.73c2.39,2.35,4.66,3.56,7.05,5.91"></path><path class="cls-3" d="M247.33,161.39c2.66,2,5,4.17,7.62,6.14l.34-.23A12.34,12.34,0,0,0,256,172c0,.08.45.79.39.86-.34.42-4.85-3-8.3-5.35"></path><path class="cls-3" d="M250.29,179.59a6.05,6.05,0,0,0,1.59,2.73,7.34,7.34,0,0,0,6.58,1.48h0s-3.31,1.59-5.92,1.36c-1.29-.11-3.17-.74-5.34-3.3"></path><path class="cls-3" d="M250.18,189l-.05-4.56"></path><path class="cls-4" d="M512.73,453.92s-1.42,1.7,15.41,2.16l103.6,24.23h0l1.35,2.76v0s-1.06,1.16-1.86,1.13l-10.35-.39a7.3,7.3,0,0,1-.75-.1h0l-92.86-21.05h0l-15.61-3.29a2,2,0,0,1-.75-.33L506.52,456s0,0,0,0,6.3.52,6.13-1.7"></path><path class="cls-5" d="M512.73,453.92s-1.42,1.7,15.41,2.16l103.6,24.23h0l1.35,2.76v0s-1.06,1.16-1.86,1.13l-10.35-.39a7.3,7.3,0,0,1-.75-.1h0l-92.86-21.05h0l-15.61-3.29a2,2,0,0,1-.75-.33L506.52,456s0,0,0,0,6.3.52,6.13-1.7"></path><path class="cls-5" d="M693,359.58c0,.8.57,12.74.6,13.56h.77l-.34,8.39a11.76,11.76,0,0,1-1.28,4.21v0l-4.3,3.89,0,0-.36.72v3.75a1.76,1.76,0,0,1-.53,1.26l-1.49,1.5h0l-.4,1.06v0l.1,1.69a3.28,3.28,0,0,1-.37,1.17v0l-4.56,5.81v0a4.89,4.89,0,0,0-.56,1.64v5.78l.41,1.44v0s1.61,6.17.7,8.58a31.88,31.88,0,0,1-1.87,2.7h0l-12-.11h0a4.35,4.35,0,0,1-1.67-1.65c-.08-.18-.31-.79-.31-.79v0l-.3-.94v0s-.39-1.91-.47-2.32c0-.06,0-.19-.06-.37a5.21,5.21,0,0,1,0-.76,5,5,0,0,1,.22-1.33,8.84,8.84,0,0,1,.87-1.77v0l1.41-2.17,1.29-1.1a1.23,1.23,0,0,0,.45-.89l.4-7.72v0l-1.8-.74c-1-.43-1.69-2.52-1.69-2.52V399h0l-1.09-.67v0l.24-4.35v0a1.8,1.8,0,0,1,.22-.55l3.22-3.88s0,0,0,0L668,388v0l-4-3.29v0a8.85,8.85,0,0,1-1.16-3.43l.5-8.21v0l1-1h0s.29-4.54.43-6.82"></path><path class="cls-5" d="M489.93,296.39l-.21,4.29a3.75,3.75,0,0,0,2.47,3.71l147,53.3h0l26.6-1.82"></path><path class="cls-5" d="M664.57,421s1,9,7.68,10.07c0,0,6,.17,9.21-7.26"></path><path class="cls-5" d="M483.09,447.71,472,444.88h0L379.5,365.72h0l61.74-39.11,0,0,25.63-16.13h0s6.28,2.84,11.07,4.85a5.46,5.46,0,0,0,6.4-1.67h0a1.2,1.2,0,0,1,1.38-.39l3.28,1.24h0l129.23,45.43"></path><path class="cls-5" d="M471.85,458.47l9.65,8.29s0,0,0,0l-.9.89v0s-.45,9.77-.45,10.11c0,2.34,3,4.48,4.82,5.58.53.32-.15,1.3-.15,1.3h0l-2.18.71h0s-.75.56-.75,1l-.17,3v0l.27.86h0l1.12.84a0,0,0,0,0,0,0v4.34l.59,1.27h0L486.2,499a3.31,3.31,0,0,1,.62,1.42v0l0,8.1h0s-3.48,1.8-4.08,2.56c-1.15,1.45,1.87,11.42,1.87,11.42v0a9,9,0,0,0,6.9,4.85"></path><path class="cls-5" d="M511.43,459.94l-.35,7.5h0l.67.22v0l-.45,10.62a2.22,2.22,0,0,1-.06.45c-.23,1-1.44,4.18-7.75,6.48a.54.54,0,0,0-.19.89l2.18,2a2.35,2.35,0,0,1,.78,1.81l-.06,2.39a2.4,2.4,0,0,1-1,1.88l-.57.41a2.45,2.45,0,0,0-1,1.93l0,1.41a2.22,2.22,0,0,1-1.41,2l-2.52,1a2.16,2.16,0,0,0-1.37,2l-.07,4.06c0,2.84,1.38,2.34,1.77,2.79.63.7-.67,2.89.87,3.93.92.63-2.45,8.17-2.66,8.59-2.33,4.78-6.2,5.35-7.22,5.05"></path><line class="cls-5" x1="362.35" y1="362.61" x2="453.52" y2="441.22"></line><path class="cls-5" d="M366.41,373.28l-8.75,6.42h0l-5.44,2.55h0L325.07,369"></path><path class="cls-5" d="M341.11,407.51l28.78,17,0,0s3.91,2.68,7.19.63l4.49-3.15h0l.68,7.67"></path><line class="cls-5" x1="407.13" y1="404.16" x2="387.06" y2="418.03"></line><polygon class="cls-2" points="387.2 430.32 381.34 381.72 383.56 383.39 389.19 430.08 387.2 430.32"></polygon><polygon class="cls-2" points="380.95 425.72 374.65 375.35 376.96 377.7 382.93 425.47 380.95 425.72"></polygon><path class="cls-5" d="M372.9,358.61l109.69-67.14a1.57,1.57,0,0,1,2.38,1.45l-.47,6.85h0l-18.16,11.09"></path><path class="cls-5" d="M484.5,299.78l5.75-3.71a6.09,6.09,0,0,0,2.67-4.05c3-17.38-.14-22.17-.14-22.17v0s-7.16-12.11-26.27-11.77c0,0,3.41-12.28-6.31-17.91l-9.73-5.63"></path><path class="cls-5" d="M437.16,228.55s-4.44-1.54-4.61,13c0,0,10.52,8.36,21,10.06a30.74,30.74,0,0,1,10.81,6.26l1.69.31"></path><path class="cls-5" d="M436.25,244s.34-11.94,1.7-9.78c.89,1.4,5,3.48,8.51,3.08a5.5,5.5,0,0,0,4.67-5.28l.7-14.52"></path><path class="cls-5" d="M439.2,216.66l-2,14.55v0a4.05,4.05,0,0,0,2.17,4.2"></path><path class="cls-5" d="M446.37,237.14l13.07,7.27h0s4.88,2.16,3.06,11.6"></path><ellipse class="cls-1" cx="445.52" cy="217.88" rx="3.75" ry="6.43" transform="translate(162.51 625.14) rotate(-81.26)"></ellipse><ellipse class="cls-5" cx="445.52" cy="217.88" rx="3.75" ry="6.43" transform="translate(162.51 625.14) rotate(-81.26)"></ellipse><line class="cls-5" x1="445.91" y1="237.48" x2="445.12" y2="248.62"></line><line class="cls-5" x1="441.02" y1="236.45" x2="440.23" y2="246.46"></line><line class="cls-5" x1="453.53" y1="251.24" x2="460.81" y2="246.12"></line><path class="cls-5" d="M464.34,243.51l60.8-42.29a2.79,2.79,0,0,0,1.2-2.26l-.13-5c0-.57-.15-2.07.26-2.47l1-.25s0,0,0,0l.54-9.74"></path><path class="cls-5" d="M467.18,253.74l63.61-43.64a5.18,5.18,0,0,1,2.54-.92,7,7,0,0,1,3.91.77"></path><path class="cls-5" d="M556.92,183.45l-.57,9.55h0l.61.47a0,0,0,0,0,0,0l-.06,6.55v0l-.42.59"></path><path class="cls-6" d="M543.61,185.75c1.65,0,3.32-2.72,3.32-7.93,0-4.18-.72-7.28-2-8.5a1.82,1.82,0,0,0-1.33-.56h-.08c-2,.07-3.47,4-3.47,9.06S541.87,185.75,543.61,185.75Z"></path><path class="cls-6" d="M543.46,166.76a3.85,3.85,0,0,1,2.87,1.12,5.62,5.62,0,0,1,.87,1.14,3.41,3.41,0,0,0,.41-1.47l3.11-65.3a3.73,3.73,0,0,0-.79-2.47l-1.76-2.26a3,3,0,0,0-2.45-1.15l-2.33.07A2.65,2.65,0,0,0,540.8,99c-.52,9.32-2.71,41.39-8.79,62.69a2.76,2.76,0,0,0,1.51,3.31,8.74,8.74,0,0,1,5.24,5.58l.4.19C540.1,168.28,541.59,166.83,543.46,166.76Z"></path><path class="cls-6" d="M554.38,199.38c-3.48-3.13-7-9.68-8.47-12.45a3.68,3.68,0,0,1-2.3.82,4.16,4.16,0,0,1-3.17-1.57,5.64,5.64,0,0,0-.44,2.68l5.69,66.73a2.1,2.1,0,0,0,.27.88l3,5.27a2.2,2.2,0,0,0,1.64,1.09l2,.23a2.16,2.16,0,0,0,1.78-.62,2.23,2.23,0,0,0,.62-1.82c-1.59-13.18.06-48.08.6-58.46A3.47,3.47,0,0,0,554.38,199.38Z"></path><path class="cls-7" d="M555.72,197.89c-3.55-3.19-7.42-10.65-8.41-12.62a15,15,0,0,0,1.62-7.45,24.25,24.25,0,0,0-.8-6.67,5.54,5.54,0,0,0,1.48-3.5l3.11-65.31a5.78,5.78,0,0,0-1.21-3.8l-1.77-2.26a5.11,5.11,0,0,0-4.08-1.91l-2.33.07a4.64,4.64,0,0,0-4.53,4.4c-.52,9.27-2.69,41.16-8.72,62.26a4.77,4.77,0,0,0,2.64,5.69,6.8,6.8,0,0,1,4.13,4.33,2,2,0,0,0,1.08,1.27l.65.3a23.84,23.84,0,0,0-.52,5.13,16.06,16.06,0,0,0,1.17,6.39l-.34.56A7.6,7.6,0,0,0,538,189l5.69,66.73a4.06,4.06,0,0,0,.52,1.69l3,5.27a4.16,4.16,0,0,0,3.16,2.09l2,.23.48,0a4.17,4.17,0,0,0,4.12-4.69c-1.57-13,.08-47.77.62-58.12A5.48,5.48,0,0,0,555.72,197.89Zm-16.56-27.16-.4-.19a8.74,8.74,0,0,0-5.24-5.58,2.76,2.76,0,0,1-1.51-3.31c6.08-21.3,8.27-53.37,8.79-62.69a2.65,2.65,0,0,1,2.59-2.52l2.33-.07a3,3,0,0,1,2.45,1.15l1.76,2.26a3.73,3.73,0,0,1,.79,2.47l-3.11,65.3a3.41,3.41,0,0,1-.41,1.47,5.62,5.62,0,0,0-.87-1.14,3.85,3.85,0,0,0-2.87-1.12C541.59,166.83,540.1,168.28,539.16,170.73Zm7.77,7.09c0,5.21-1.67,7.93-3.32,7.93s-3.55-3-3.55-7.93,1.5-9,3.47-9.06h.08a1.82,1.82,0,0,1,1.33.56C546.21,170.54,546.93,173.64,546.93,177.82Zm8,82.8a2.23,2.23,0,0,1-.62,1.82,2.16,2.16,0,0,1-1.78.62l-2-.23a2.2,2.2,0,0,1-1.64-1.09l-3-5.27a2.1,2.1,0,0,1-.27-.88L540,188.86a5.64,5.64,0,0,1,.44-2.68,4.16,4.16,0,0,0,3.17,1.57,3.68,3.68,0,0,0,2.3-.82c1.43,2.77,5,9.32,8.47,12.45a3.47,3.47,0,0,1,1.18,2.78C555,212.54,553.37,247.44,555,260.62Z"></path><path class="cls-4" d="M554.38,199.38c-3.48-3.13-7-9.68-8.47-12.45a3.68,3.68,0,0,1-2.3.82,4.16,4.16,0,0,1-3.17-1.57,5.64,5.64,0,0,0-.44,2.68l5.69,66.73a2.1,2.1,0,0,0,.27.88l3,5.27a2.2,2.2,0,0,0,1.64,1.09l2,.23a2.16,2.16,0,0,0,1.78-.62,2.23,2.23,0,0,0,.62-1.82c-1.59-13.18.06-48.08.6-58.46A3.47,3.47,0,0,0,554.38,199.38Z"></path><path class="cls-4" d="M543.46,166.76a3.85,3.85,0,0,1,2.87,1.12,5.62,5.62,0,0,1,.87,1.14,3.41,3.41,0,0,0,.41-1.47l3.11-65.3a3.73,3.73,0,0,0-.79-2.47l-1.76-2.26a3,3,0,0,0-2.45-1.15l-2.33.07A2.65,2.65,0,0,0,540.8,99c-.52,9.32-2.71,41.39-8.79,62.69a2.76,2.76,0,0,0,1.51,3.31,8.74,8.74,0,0,1,5.24,5.58l.4.19C540.1,168.28,541.59,166.83,543.46,166.76Z"></path><path class="cls-4" d="M543.61,168.76h-.08c-2,.07-3.47,4-3.47,9.06s1.81,7.93,3.55,7.93,3.32-2.72,3.32-7.93c0-4.18-.72-7.28-2-8.5A1.82,1.82,0,0,0,543.61,168.76Z"></path><path class="cls-5" d="M547.24,174.05c5.92,1.69,10,6,9.69,10.67-.36,4.88-6.59,7.89-7.12,8.14"></path><path class="cls-5" d="M539.52,192.55c-3.92-1.22-11.74-4.76-11.53-9.93.18-4.3,5.52-8,11.21-9.05"></path><path class="cls-5" d="M528.9,234.22l-.19,3.25v0a15.35,15.35,0,0,1-.63,4.77,2.51,2.51,0,0,0-.11,1.46c.52,2.13,2.43,7.9,7.79,8.54,6.6.8,8-5.63,8-5.63"></path><path class="cls-5" d="M527.58,212.68l-.1,3.88a1.49,1.49,0,0,0,.77,1.33l2.37,1.29a1.59,1.59,0,0,1,.84,1.37l.1,4.52s0,0,0,0l1.11.55v0l-.34,7.27"></path><path class="cls-5" d="M527.8,242.94s5.58,5.23,16.15,3"></path><path class="cls-6" d="M262.71,113.25h-.26a1.79,1.79,0,0,0-1.28.48c-1.2,1.09-1.8,4-1.8,8.72,0,4.47,1.25,7.35,3.2,7.35,1.79,0,2.81-2.68,2.81-7.35v-.28C265.38,115.75,265.17,113.48,262.71,113.25Z"></path><path class="cls-6" d="M264.85,131a3.59,3.59,0,0,1-2.28.78,4.16,4.16,0,0,1-3.08-1.44c-1.53,5.19-5.79,11.39-8,14a2.49,2.49,0,0,0-.46,2.35c8.17,26.44,10.78,52.78,11.38,60.22a1.42,1.42,0,0,0,.5,1,1.46,1.46,0,0,0,1.05.32l4.28-.44a1.71,1.71,0,0,0,1.42-1.06l2.17-5.17a1.9,1.9,0,0,0,.14-.91l-5.23-66a2.87,2.87,0,0,0-.81-1.93A5.21,5.21,0,0,1,264.85,131Z"></path><path class="cls-6" d="M282.45,43.88l-5.79-2a.27.27,0,0,0-.27.06l-3.74,3.35a1.63,1.63,0,0,0-.51.9L259.2,112.84a.48.48,0,0,0,0,.12,4.39,4.39,0,0,1,.63-.72,3.84,3.84,0,0,1,3.06-1c2.82.26,3.87,2.19,4.26,5l.7,0a.41.41,0,0,0,.35-.21c1.25-2.67,4.19-3.31,6.61-3.57a1.38,1.38,0,0,0,1.25-1.42c-.47-24.5,5.38-60,6.56-66.92A.24.24,0,0,0,282.45,43.88Z"></path><path class="cls-8" d="M283.09,42l-5.78-2a2.3,2.3,0,0,0-2.26.46l-3.73,3.35a3.61,3.61,0,0,0-1.14,2l-12.94,66.63a3.89,3.89,0,0,0,.37,2.55l.39.76a27.92,27.92,0,0,0-.63,6.67,17.19,17.19,0,0,0,.66,5.17c-.47,4.73-5.45,12.36-8.06,15.45a4.49,4.49,0,0,0-.84,4.23c8.11,26.24,10.7,52.4,11.3,59.79a3.38,3.38,0,0,0,3.39,3.12h.36l4.27-.44a3.74,3.74,0,0,0,3.07-2.28l2.16-5.17a4,4,0,0,0,.3-1.84l-5.23-66a4.88,4.88,0,0,0-1.47-3.26,6.6,6.6,0,0,1-1-2.05,15.81,15.81,0,0,0,1.13-6.7v-.28c0-1.37,0-2.67-.06-3.87l.6,0A2.38,2.38,0,0,0,270,116.9c.82-1.75,3-2.2,5-2.42a3.38,3.38,0,0,0,3-3.45c-.47-24.31,5.36-59.7,6.53-66.54A2.24,2.24,0,0,0,283.09,42ZM266.75,134.6l5.23,66a1.9,1.9,0,0,1-.14.91l-2.17,5.17a1.71,1.71,0,0,1-1.42,1.06l-4.28.44a1.46,1.46,0,0,1-1.05-.32,1.42,1.42,0,0,1-.5-1c-.6-7.44-3.21-33.78-11.38-60.22a2.49,2.49,0,0,1,.46-2.35c2.2-2.61,6.46-8.81,8-14a4.16,4.16,0,0,0,3.08,1.44,3.59,3.59,0,0,0,2.28-.78,5.21,5.21,0,0,0,1.09,1.66A2.87,2.87,0,0,1,266.75,134.6Zm-7.38-12.16c0-4.7.6-7.63,1.8-8.72a1.79,1.79,0,0,1,1.28-.48h.26c2.46.23,2.67,2.5,2.67,8.91v.28c0,4.67-1,7.35-2.81,7.35C260.62,129.79,259.37,126.91,259.37,122.44Zm16.69-11.37a1.38,1.38,0,0,1-1.25,1.42c-2.42.26-5.36.9-6.61,3.57a.41.41,0,0,1-.35.21l-.7,0c-.39-2.84-1.44-4.77-4.26-5a3.84,3.84,0,0,0-3.06,1,4.39,4.39,0,0,0-.63.72.48.48,0,0,1,0-.12l12.94-66.63a1.63,1.63,0,0,1,.51-.9L276.39,42a.27.27,0,0,1,.27-.06l5.79,2a.24.24,0,0,1,.17.27C281.44,51,275.59,86.57,276.06,111.07Z"></path><path class="cls-4" d="M282.45,43.88l-5.79-2a.27.27,0,0,0-.27.06l-3.74,3.35a1.63,1.63,0,0,0-.51.9L259.2,112.84a.48.48,0,0,0,0,.12,4.39,4.39,0,0,1,.63-.72,3.84,3.84,0,0,1,3.06-1c2.82.26,3.87,2.19,4.26,5l.7,0a.41.41,0,0,0,.35-.21c1.25-2.67,4.19-3.31,6.61-3.57a1.38,1.38,0,0,0,1.25-1.42c-.47-24.5,5.38-60,6.56-66.92A.24.24,0,0,0,282.45,43.88Z"></path><path class="cls-4" d="M264.85,131a3.59,3.59,0,0,1-2.28.78,4.16,4.16,0,0,1-3.08-1.44c-1.53,5.19-5.79,11.39-8,14a2.49,2.49,0,0,0-.46,2.35c8.17,26.44,10.78,52.78,11.38,60.22a1.42,1.42,0,0,0,.5,1,1.46,1.46,0,0,0,1.05.32l4.28-.44a1.71,1.71,0,0,0,1.42-1.06l2.17-5.17a1.9,1.9,0,0,0,.14-.91l-5.23-66a2.87,2.87,0,0,0-.81-1.93A5.21,5.21,0,0,1,264.85,131Z"></path><path class="cls-4" d="M262.57,129.79c1.79,0,2.81-2.68,2.81-7.35v-.28c0-6.41-.21-8.68-2.67-8.91h-.26a1.79,1.79,0,0,0-1.28.48c-1.2,1.09-1.8,4-1.8,8.72C259.37,126.91,260.62,129.79,262.57,129.79Z"></path><path class="cls-5" d="M256.32,135.74c-3.33-1.42-8.34-4.7-8.2-8.61.19-4.93,7.25-7.64,9.95-8.25"></path><path class="cls-5" d="M266.38,119c3.14.85,9.82,4.42,9.55,9.41s-7.32,7.72-7.72,7.87"></path><path class="cls-5" d="M275.94,129.43l-.17,8v0l.79.95v0l-.25,9.59a2.93,2.93,0,0,0,1,2.27l96,83.71h0l1.27-4.49a2.47,2.47,0,0,1,1.13-1.46l20-11.45a3.78,3.78,0,0,1,2.63-.44c4.5.89,18.53,4.85,30.11,21.09l4.09,4.27"></path><path class="cls-5" d="M269.45,156.39,365,240h0l15.17-9h0s4.44-3,26,7a2.69,2.69,0,0,0,2.17.06c1.28-.53,3.51-1.24,5.12-.55,2.39,1,22.35,8.87,32.76,19.11a8.88,8.88,0,0,1,.92,2.32,2.44,2.44,0,0,0,.93,1.5c3.56,2.57,17.25,13.06,14.87,21.09l-5.46,17.39v0s-1.19,3.4-5.45.5l-3.23-1.57a5,5,0,0,0-4.71.18c-9.06,5.3-42.35,25-54.9,36.19a2.34,2.34,0,0,1-3.55-.5,9.29,9.29,0,0,0-5.78-4.27c-4.6-1.12-16.39-3.83-20.53-4.78a6.13,6.13,0,0,1-2.57-1.29c-3.64-3.08-15.91-13-29.61-19.18"></path><path class="cls-5" d="M380.29,366.45l-12.45-12.1a4.8,4.8,0,0,0-6.36-.38,11.84,11.84,0,0,0-2.33,2.67,2.7,2.7,0,0,0,.46,3.51l5,4.43"></path><path class="cls-5" d="M315,300l-11.26-11.59v0l.25-1.62a4.19,4.19,0,0,1,1.53-2.62l14.41-11.44h0s1.71-2.37,6.18-1.78a4.69,4.69,0,0,0,3.8-1.27l3-2.85v0l.32-.8s0,0,0,0l-.93-.66a4.85,4.85,0,0,1-2-3.67l-.24-4.47a5,5,0,0,1,.95-3.25c2.49-3.4,9.58-10.5,22.48-4.74a4.35,4.35,0,0,1,2.53,3.56l.38,4a5.62,5.62,0,0,1-1.11,4c-2.38,3.06-8.5,8-22.25,5.27"></path><path class="cls-5" d="M355.84,250.33s2.5-7.28,9.15-10.35"></path><path class="cls-5" d="M248.12,127.13l-.45,7.64a1.91,1.91,0,0,1-.87,1.51h0a1.77,1.77,0,0,0-.77,1.35l-.58,10.45a3.3,3.3,0,0,0,.48,1.89,14.9,14.9,0,0,0,5.87,4.54c.19.06-1.17-.06-1.35,0l-2.11,1.06a2.34,2.34,0,0,0-1.29,2l-.11,3.21s0,0,0,0l.84,1a0,0,0,0,1,0,0l-.13,3.84a2.35,2.35,0,0,0,1,2l2.94,2.13a2.34,2.34,0,0,1,1,1.93l-.11,5.05a2.48,2.48,0,0,1-1.7,2.31l-1.93.64a2.37,2.37,0,0,0-1.61,2.11l-.25,5a0,0,0,0,0,0,0s1.7,14,12.79,9.55"></path><path class="cls-5" d="M246.65,186.58s6.65,6.88,12.62,3.3"></path><path class="cls-5" d="M424.19,337.57s-1.19,25.24-4.26,27.63l11.76,6.31h0l4.43-41.44"></path><path class="cls-5" d="M441.25,326.59l-4.84,48.32a2.33,2.33,0,0,1-1.28,1.85,2.63,2.63,0,0,1-3.6-1.36c-.24-.59.51-7,.51-7"></path><path class="cls-5" d="M436.87,374.64c.23,0,3,2.62.4,5.12s-20.13,17.29-20.13,17.29"></path><line class="cls-5" x1="109.94" y1="254.48" x2="275.25" y2="313.34"></line><path class="cls-5" d="M303.75,288.43c-4.27-4.6-6.25-1.37-6.25-1.37h0L287,297.64h0L275.43,313.1v0l-1.08,7.21a3.25,3.25,0,0,1-2.38,2.28l-1.73.35a2.18,2.18,0,0,0-1,.92,4.13,4.13,0,0,0-.55,2.51l.3,6.82a4.87,4.87,0,0,0,2.19,3.84l19.25,12.63"></path><path class="cls-5" d="M87.76,224.28,90.82,226h0l9.54,14.82a0,0,0,0,0,0,0l180.48,64.31"></path><path class="cls-5" d="M82.64,214.24c6.09,1.11,12.24,6.14,11.76,10.74a6,6,0,0,1-1.75,3.5"></path><path class="cls-5" d="M81.28,233.08a14.73,14.73,0,0,1-1.92-.12c-6.15-.8-13.59-5.94-13.07-10.92.44-4.2,6-7,8.87-7.69"></path><path class="cls-5" d="M66.22,223l-.17,6.93a1,1,0,0,1-.46.83l-1.4.93a1.74,1.74,0,0,0-.51,1.16L63.21,243a1.58,1.58,0,0,0,.17.8c.55,1.14,2.34,4.45,5.16,5.65a.62.62,0,0,1,.21,1l-3.35,4a1.6,1.6,0,0,0-.39,1L65,258.51h0l.94.39,0,0-.06,3.17c0,.42-.09.21.28.4l2.62,1.14a4.3,4.3,0,0,1,1.08,2.44l-.46,7.37a2.71,2.71,0,0,1-1.25,2.21c-2,1.26-4.38,3.33-4.26,6.63.13,4,9.21,21.33,19.28,1,0,0,2.29-2.13-2.08-6.26a2.55,2.55,0,0,1-.8-1.91l.23-7.6h0l.81-.59v0l.13-2.86a2.43,2.43,0,0,1,.57-1.45l5-5.88a2.54,2.54,0,0,0,.62-1.52l.18-2.83"></path><path class="cls-6" d="M86.34,224.67c.37-.51-.36-4-4.21-9.13a29.38,29.38,0,0,0-4.26-4.64h0l0-.06c-1.57-1.33-2.73-1.88-3.19-1.88l-.13,0c-.37.47.34,4,4.21,9.13S85.75,224.89,86.34,224.67Z"></path><path class="cls-6" d="M73.29,207.39c1.13-.85,2.87-.26,4.75,1.1a28.45,28.45,0,0,1,1.27-2.82.79.79,0,0,0-.1-.86c-6.49-7.73-40.89-59.83-44.79-65.75a.53.53,0,0,0-.42-.23l-4.64-.08a.32.32,0,0,0-.21.09.29.29,0,0,0-.09.21l0,4.16a.66.66,0,0,0,.12.38l41.34,67.15L73,212.07C72.25,210,72.19,208.22,73.29,207.39Z"></path><path class="cls-6" d="M89.55,226.94,87.79,226a1.9,1.9,0,0,1-.25.24,2,2,0,0,1-1.28.41,6,6,0,0,1-3.2-1.32l-.38.18c-.64.76-1.25,1.9-1.09,2.33.94,2.51,1.51,6.87-1,13.35a1.94,1.94,0,0,0,.37,2c6.71,7.2,40.53,43.83,47.25,57.33a1.39,1.39,0,0,0,1.9.62,7.64,7.64,0,0,1,1.28-.45,4.5,4.5,0,0,0,3.11-3.73l.13-1.94a5.87,5.87,0,0,0-.5-2.31Z"></path><path class="cls-8" d="M135.84,291.79,91.06,225.61l-.16-.22-2.5-1.3a9.07,9.07,0,0,0-.66-2.85,30,30,0,0,0-4-6.91,34.31,34.31,0,0,0-4-4.47,19,19,0,0,1,1.4-3.3,2.81,2.81,0,0,0-.36-3C74.32,195.88,40,143.87,36.09,138A2.52,2.52,0,0,0,34,136.83l-4.64-.08a2.42,2.42,0,0,0-1.65.67,2.31,2.31,0,0,0-.68,1.65l0,4.16a2.79,2.79,0,0,0,.41,1.41l41.41,67.24a1.56,1.56,0,0,0,.58.56L74,214.93l.12-.22a34.25,34.25,0,0,0,3,4.62A33.48,33.48,0,0,0,81.36,224l0,0c-.39.43-2.28,2.68-1.6,4.51.81,2.18,1.29,6-1,11.92a3.93,3.93,0,0,0,.77,4.11c6.68,7.17,40.32,43.6,46.92,56.87a3.38,3.38,0,0,0,3,1.87,3.57,3.57,0,0,0,1.51-.34,4.47,4.47,0,0,1,.92-.32,6.47,6.47,0,0,0,4.6-5.54l.14-1.93a8,8,0,0,0-.69-3.31Zm-62.55-84.4c-1.1.83-1,2.58-.31,4.68l-2.42-1.33L29.22,143.59a.66.66,0,0,1-.12-.38l0-4.16a.29.29,0,0,1,.09-.21.32.32,0,0,1,.21-.09l4.64.08a.53.53,0,0,1,.42.23c3.9,5.92,38.3,58,44.79,65.75a.79.79,0,0,1,.1.86A28.45,28.45,0,0,0,78,208.49C76.16,207.13,74.42,206.54,73.29,207.39Zm5.41,10.73c-3.87-5.13-4.58-8.66-4.21-9.13l.13,0c.46,0,1.62.55,3.19,1.88l0,.06h0a29.38,29.38,0,0,1,4.26,4.64c3.85,5.1,4.58,8.62,4.21,9.13C85.75,224.89,82.56,223.23,78.7,218.12Zm55.88,76.95-.13,1.94a4.5,4.5,0,0,1-3.11,3.73,7.64,7.64,0,0,0-1.28.45,1.39,1.39,0,0,1-1.9-.62c-6.72-13.5-40.54-50.13-47.25-57.33a1.94,1.94,0,0,1-.37-2c2.56-6.48,2-10.84,1-13.35-.16-.43.45-1.57,1.09-2.33l.38-.18a6,6,0,0,0,3.2,1.32,2,2,0,0,0,1.28-.41,1.9,1.9,0,0,0,.25-.24l1.76.91,44.53,65.82A5.87,5.87,0,0,1,134.58,295.07Z"></path><path class="cls-4" d="M78,208.49a28.45,28.45,0,0,1,1.27-2.82.79.79,0,0,0-.1-.86c-6.49-7.73-40.89-59.83-44.79-65.75a.53.53,0,0,0-.42-.23l-4.64-.08a.32.32,0,0,0-.21.09.29.29,0,0,0-.09.21l0,4.16a.66.66,0,0,0,.12.38l41.34,67.15L73,212.07c-.73-2.1-.79-3.85.31-4.68S76.16,207.13,78,208.49Z"></path><path class="cls-4" d="M86.34,224.67c.37-.51-.36-4-4.21-9.13a29.38,29.38,0,0,0-4.26-4.64h0l0-.06c-1.57-1.33-2.73-1.88-3.19-1.88l-.13,0c-.37.47.34,4,4.21,9.13S85.75,224.89,86.34,224.67Z"></path><path class="cls-4" d="M89.55,226.94,87.79,226a1.9,1.9,0,0,1-.25.24,2,2,0,0,1-1.28.41,6,6,0,0,1-3.2-1.32l-.38.18c-.64.76-1.25,1.9-1.09,2.33.94,2.51,1.51,6.87-1,13.35a1.94,1.94,0,0,0,.37,2c6.71,7.2,40.53,43.83,47.25,57.33a1.39,1.39,0,0,0,1.9.62,7.64,7.64,0,0,1,1.28-.45,4.5,4.5,0,0,0,3.11-3.73l.13-1.94a5.87,5.87,0,0,0-.5-2.31Z"></path><path class="cls-5" d="M383.89,440.84l.14,1.61a.9.9,0,0,1-.07.39c-.39.94-2,5.32,1.48,7a.63.63,0,0,1,.35.46l7.35,55.51v0l-.66.55s0,0,0,0l.85,6.67a2.54,2.54,0,0,1-.93,2.3c-4.29,3.49-20.28,15.94-33,18.43l-3.57.34h0s-3.77,1.31-.9,4.8c0,0,5.56,2.23,19.16-4.57.42-.21,18.74-12.55,21.67-14.52a2,2,0,0,1,.74-.29c.71-.15,2.67-1,6.94-5.44l19.78-13.3h0l47.41-31.83h0l1.34-.34h0l6.24-4.2"></path><path class="cls-5" d="M469.93,458.69l-2.12,4.85v0l-.16.46h0l-68,46.28h0l-.56-5.67h-.92l-7.43-55.77a3.94,3.94,0,0,1,1.46-3.62l2.09-1.65"></path><line class="cls-5" x1="408.38" y1="433.33" x2="426.81" y2="420.93"></line><path class="cls-5" d="M466.61,440.15l-4.8-40.24a1.32,1.32,0,0,0-2-.94l-22.84,15.14"></path><path class="cls-5" d="M432.72,410.92l27.12-19.2a1,1,0,0,0,.43-1l-8.44-62.38v0s-.91-5.67-2.5-6.7"></path><path class="cls-6" d="M483.87,451.46l-.2,0c-2.39-.46-7.27-1.49-9.13-2.53a.9.9,0,0,0,0,.46,1,1,0,0,0,.16.25c.68.66,8.26,2.53,9.58,2.16l.12,0,.2,0-.67-.24Z"></path><path class="cls-6" d="M484.52,452.75a3.6,3.6,0,0,1-.64.05c-2.51,0-9.11-1.61-9.92-2.53a2.07,2.07,0,0,1-.34-.58,2.18,2.18,0,0,1,.2-1.72c.16-.56,1-.64,3.13-.68-3.09-.73-6.51-1.53-8-1.84-13.7-2.95-25.71-4.8-36.31-6.42-8.71-1.34-16.94-2.6-24.72-4.27l-.15,0c-.94-.2-3.15-.67-6.13-1.23-5.51-1-11.16-1.9-16.78-2.55-6.74-.78-13.56-1.28-20.24-1.48a3.33,3.33,0,0,0-1.5.3,3.6,3.6,0,0,0-1.63,1.55l-.5,2.26.19.95a7.41,7.41,0,0,0,.76.47c.95.24,16.73,3.95,40.12,9.39l61,14.06a9.86,9.86,0,0,0,6.38-.66,57.68,57.68,0,0,1,13.57-4.52,13.45,13.45,0,0,0,2-.62C484.84,452.71,484.63,452.73,484.52,452.75Z"></path><path class="cls-6" d="M481.61,448.63a18.65,18.65,0,0,0-4-.36h-.44c-.43,0-1.06,0-1.59.06a78.42,78.42,0,0,0,8.21,2.1.9.9,0,0,1,.45.07l.46.18.5.19-2.57-2.25-1-.23Z"></path><path class="cls-6" d="M486.13,451.85a.76.76,0,0,1-.43.55c.29-.11.57-.23.82-.34l-.39-.35A.65.65,0,0,1,486.13,451.85Z"></path><path class="cls-8" d="M483.31,446.74c-.1,0-11-2.61-13.9-3.25-13.77-3-25.81-4.81-36.44-6.44-8.68-1.33-16.88-2.59-24.61-4.24l-.14,0c-1-.21-3.18-.68-6.18-1.25-5.56-1-11.25-1.91-16.92-2.56-6.8-.79-13.67-1.29-20.42-1.5a5.51,5.51,0,0,0-2.38.48,5.59,5.59,0,0,0-2.64,2.58l-.68,2.92.32,1.85.21.49.2.15a5.37,5.37,0,0,0,1.68,1c1.16.3,18.61,4.39,40.23,9.41l61,14.07a12.08,12.08,0,0,0,2.67.3,11.84,11.84,0,0,0,5-1.1,55.86,55.86,0,0,1,13.1-4.37,27.91,27.91,0,0,0,5.31-2l.47-.23.16-1.06-5.73-5.05Zm-.23,6.53a57.68,57.68,0,0,0-13.57,4.52,9.86,9.86,0,0,1-6.38.66l-61-14.06C378.7,439,362.92,435.24,362,435a7.41,7.41,0,0,1-.76-.47l-.19-.95.5-2.26a3.6,3.6,0,0,1,1.63-1.55,3.33,3.33,0,0,1,1.5-.3c6.68.2,13.5.7,20.24,1.48,5.62.65,11.27,1.51,16.78,2.55,3,.56,5.19,1,6.13,1.23l.15,0c7.78,1.67,16,2.93,24.72,4.27,10.6,1.62,22.61,3.47,36.31,6.42,1.46.31,4.88,1.11,8,1.84-2.12,0-3,.12-3.13.68a2.18,2.18,0,0,0-.2,1.72,2.07,2.07,0,0,0,.34.58c.81.92,7.41,2.53,9.92,2.53a3.6,3.6,0,0,0,.64-.05c.11,0,.32,0,.55-.1A13.45,13.45,0,0,1,483.08,453.27Zm-8.54-4.37c1.86,1,6.74,2.07,9.13,2.53l.2,0,.08,0,.67.24-.2,0-.12,0c-1.32.37-8.9-1.5-9.58-2.16a1,1,0,0,1-.16-.25A.9.9,0,0,1,474.54,448.9Zm11.59,3a.65.65,0,0,0,0-.14l.39.35c-.25.11-.53.23-.82.34A.76.76,0,0,0,486.13,451.85Zm-1.44-1.16-.46-.18a.9.9,0,0,0-.45-.07,78.42,78.42,0,0,1-8.21-2.1c.53,0,1.16,0,1.59-.06h.44a18.65,18.65,0,0,1,4,.36l.05-.23,1,.23,2.57,2.25Z"></path><path class="cls-4" d="M481.66,448.4l-.05.23a18.65,18.65,0,0,0-4-.36h-.44c-.43,0-1.06,0-1.59.06a78.42,78.42,0,0,0,8.21,2.1.9.9,0,0,1,.45.07l.46.18.5.19-2.57-2.25Z"></path><path class="cls-4" d="M483.88,452.8c-2.51,0-9.11-1.61-9.92-2.53a2.07,2.07,0,0,1-.34-.58,2.18,2.18,0,0,1,.2-1.72c.16-.56,1-.64,3.13-.68-3.09-.73-6.51-1.53-8-1.84-13.7-2.95-25.71-4.8-36.31-6.42-8.71-1.34-16.94-2.6-24.72-4.27l-.15,0c-.94-.2-3.15-.67-6.13-1.23-5.51-1-11.16-1.9-16.78-2.55-6.74-.78-13.56-1.28-20.24-1.48a3.33,3.33,0,0,0-1.5.3,3.6,3.6,0,0,0-1.63,1.55l-.5,2.26.19.95a7.41,7.41,0,0,0,.76.47c.95.24,16.73,3.95,40.12,9.39l61,14.06a9.86,9.86,0,0,0,6.38-.66,57.68,57.68,0,0,1,13.57-4.52,13.45,13.45,0,0,0,2-.62c-.23.06-.44.08-.55.1A3.6,3.6,0,0,1,483.88,452.8Z"></path><path class="cls-4" d="M486.13,451.71a.65.65,0,0,1,0,.14.76.76,0,0,1-.43.55c.29-.11.57-.23.82-.34Z"></path><path class="cls-4" d="M474.72,449.61c.68.66,8.26,2.53,9.58,2.16l.12,0,.2,0-.67-.24-.08,0-.2,0c-2.39-.46-7.27-1.49-9.13-2.53a.9.9,0,0,0,0,.46A1,1,0,0,0,474.72,449.61Z"></path><path class="cls-5" d="M453.65,318.69s2.61,1.81,4,12.28,7.28,57.08,7.28,57.08v0l.22,2.26h0s2.31,1.4,1.12,5.26a3,3,0,0,0-.06.62v0s3.94,33.24,5.76,48.63"></path><line class="cls-5" x1="422.94" y1="417.29" x2="401.56" y2="432.31"></line><path class="cls-5" d="M493.63,447c.33,0,11.34-9.65,16.46-17.46a1.23,1.23,0,0,1,1.52-.45,5.13,5.13,0,0,1,2.16,1.68,1.61,1.61,0,0,1,0,1.85c-2.13,2.93-10.22,13.81-14,15.66"></path><path class="cls-5" d="M278.84,342l-.22,3.78a4.53,4.53,0,0,0,1.31,3.46l2,2a5.14,5.14,0,0,1,1.5,4.05l-.84,10.58s0,0,0,0l-52.79,36.42"></path><path class="cls-5" d="M282.51,379.36l27.66,18.22.1.07c.34.31,2.91,2.48,5,1.39a.93.93,0,0,1,.9,0l18,9.88a5,5,0,0,0,5.21-.25l5.14-3.51a1,1,0,0,1,1.05,0l.88.56a1,1,0,0,0,.95,0l7.14-3.71a1,1,0,0,0,.51-.93l-.23-2.55a.94.94,0,0,1,.43-.88l5.21-3.33a1,1,0,0,0,.44-.82l-.13-6.41a1,1,0,0,0-1.42-.81h0a.94.94,0,0,1-1.41-.78l-.27-5.8"></path><path class="cls-5" d="M294.35,353.35a2.9,2.9,0,0,1-4-3l2.31-20.95v0s1-9.2,9.55-4.42,20,11.6,20,11.6h0s5.11,3.4,4.43,13-1.88,20.12-1.88,20.12v0l0,0a2.7,2.7,0,0,1-4.34-2.42l2.16-21.31v0s.17-4.93-5.8-8-16.71-8.7-16.71-8.7h0s-3.06-2-3.74,5.29-1.71,18.76-1.71,18.76v0Z"></path><line class="cls-5" x1="316.2" y1="320.85" x2="315.35" y2="332.45"></line><path class="cls-5" d="M314.83,336.71l-.18,2.88a2.93,2.93,0,0,0,5.23,2l.07-.1"></path><line class="cls-5" x1="321.32" y1="321.53" x2="320.29" y2="335.01"></line><path class="cls-5" d="M312.45,317.6c.59,0,4.62,5.62,10.77,3.06a5.2,5.2,0,0,0,3.13-4.67l.43-13.74"></path><path class="cls-5" d="M314.83,301.23l-2.43,13a5,5,0,0,0,1.25,4.33l.5.54"></path><ellipse class="cls-5" cx="320.83" cy="302.17" rx="3.84" ry="6.07" transform="translate(-18.32 583.61) rotate(-82.97)"></ellipse><path class="cls-5" d="M271.67,386.19l-20.51,46.35a4.11,4.11,0,0,1-1.44,1.73l-26.84,18.11"></path><path class="cls-5" d="M306.65,395.57l-45.75,31.7a.7.7,0,0,1-1-.86l20-45.85"></path><path class="cls-5" d="M311.88,398.81l-52.65,35.48s0,0,0,0l0,.69v0l-5.48,3.71h0l-.75-.42h0l-31.21,20.55"></path><path class="cls-5" d="M202.41,402.05l-.83,9.27a.66.66,0,0,1-.26.46l-1,.73a.47.47,0,0,0-.16.31l-.6,9.62a3.39,3.39,0,0,0,.61,2.18,18.25,18.25,0,0,0,4.5,4.46.86.86,0,0,1,.11,1.36l-3.14,2.78a1.45,1.45,0,0,0-.49,1l-.24,3.71a1.31,1.31,0,0,0,.64,1.23l.42.25a1.16,1.16,0,0,1,.56,1l-.11,3a1.48,1.48,0,0,0,.73,1.33l3.08,1.83a1.37,1.37,0,0,1,.67,1.33l-.34,3a.93.93,0,0,1-.76.81c-1,.19-2.83.76-3.07,2.47l-.51,3.91v0s-2.21,11.08,6.15,15.35"></path><path class="cls-5" d="M209.23,465.35a11.6,11.6,0,0,1-7.51-5.46"></path><path class="cls-6" d="M217.3,406a1.27,1.27,0,0,0,1-.36c1.2-1.08,1.92-4.18,1.92-8.29,0-5.46-1.38-8.41-2.67-8.41s-3.09,2.67-3.09,8.41C214.5,401.17,215,405.75,217.3,406Z"></path><path class="cls-6" d="M217.59,387c1.45,0,2.62,1,3.43,2.83l-6.59-68a1.19,1.19,0,0,0-.17-.49l-3.33-5a.35.35,0,0,0-.34-.15l-4.94.86a1.17,1.17,0,0,0-1,1.31c2.81,24.61-.36,57-1.39,66.33a1.2,1.2,0,0,0,.92,1.29c5,1.31,7.79,3.58,9.18,5.19C214.28,388.54,215.77,387,217.59,387Z"></path><path class="cls-6" d="M218.75,407.73a3.2,3.2,0,0,1-1.3.29l-.37,0a3.83,3.83,0,0,1-2.75-1.62l-.62.29c-.23.32-.46.64-.58.82l-3.32,69.11.16.89,1.34,3.08a6.43,6.43,0,0,0,4.05,3.61,29.94,29.94,0,0,0,3.75.94c0-.82,0-1.92,0-2.66,0-.13.24-10.51.82-16.32.24-2.44.55-4.89.91-7.33h-.08c.08-1.14.83-5.09,1.83-10v0h0c1.76-8.7,4.29-20.42,5.32-25.18a2.1,2.1,0,0,0-.42-1.78C224.61,418.27,220.18,410.33,218.75,407.73Z"></path><path class="cls-8" d="M220.31,406.41c1.67-2.3,1.95-6.55,1.95-9.05a25.18,25.18,0,0,0-.5-5.26l.54-.52a2.36,2.36,0,0,0,.71-1.94l-6.59-68a3.11,3.11,0,0,0-.5-1.41l-3.32-5a2.36,2.36,0,0,0-2.36-1l-4.93.86a3.2,3.2,0,0,0-2.62,3.51c2.79,24.4-.36,56.59-1.39,65.88a3.18,3.18,0,0,0,2.41,3.45c6.72,1.73,8.79,5.31,9.06,5.83a23.92,23.92,0,0,0-.27,3.62,22.61,22.61,0,0,0,.91,7.24c-.21.09-.47.21-.82.39l-.2.12-.13.16a5.58,5.58,0,0,0-1.07,1.65l0,.12-3.34,69.51v.07l.21,1.32,1.45,3.41a8.43,8.43,0,0,0,5.31,4.73,19.82,19.82,0,0,0,4.89,1.08c.85,0,1.19-.29,1.39-.77a1.13,1.13,0,0,0,.07-.7c0-.3,0-1.89,0-3.22,0-.1.24-10.41.81-16.14a166.26,166.26,0,0,1,2.63-17.19h0c1.4-6.9,3.41-16.35,5.32-25.17a4.07,4.07,0,0,0-.83-3.48C226.16,417,221.44,408.47,220.31,406.41Zm-6.92-15.25c-1.39-1.61-4.13-3.88-9.18-5.19a1.2,1.2,0,0,1-.92-1.29c1-9.34,4.2-41.72,1.39-66.33a1.17,1.17,0,0,1,1-1.31l4.94-.86a.35.35,0,0,1,.34.15l3.33,5a1.19,1.19,0,0,1,.17.49l6.59,68c-.81-1.82-2-2.83-3.43-2.83C215.77,387,214.28,388.54,213.39,391.16Zm6.87,6.2c0,4.11-.72,7.21-1.92,8.29a1.27,1.27,0,0,1-1,.36c-2.32-.26-2.8-4.84-2.8-8.65,0-5.74,1.84-8.41,3.09-8.41S220.26,391.9,220.26,397.36Zm7.67,26.19c-1,4.76-3.56,16.48-5.32,25.18h0v0c-1,4.93-1.75,8.88-1.83,10h.08c-.36,2.44-.67,4.89-.91,7.33-.58,5.81-.81,16.19-.82,16.32,0,.74,0,1.84,0,2.66a29.94,29.94,0,0,1-3.75-.94,6.43,6.43,0,0,1-4.05-3.61L210,477.48l-.16-.89,3.32-69.11c.12-.18.35-.5.58-.82l.62-.29a3.83,3.83,0,0,0,2.75,1.62l.37,0a3.2,3.2,0,0,0,1.3-.29c1.43,2.6,5.86,10.54,8.76,14A2.1,2.1,0,0,1,227.93,423.55Z"></path><path class="cls-4" d="M218.75,407.73a3.2,3.2,0,0,1-1.3.29l-.37,0a3.83,3.83,0,0,1-2.75-1.62l-.62.29c-.23.32-.46.64-.58.82l-3.32,69.11.16.89,1.34,3.08a6.43,6.43,0,0,0,4.05,3.61,29.94,29.94,0,0,0,3.75.94c0-.82,0-1.92,0-2.66,0-.13.24-10.51.82-16.32.24-2.44.55-4.89.91-7.33h-.08c.08-1.14.83-5.09,1.83-10v0h0c1.76-8.7,4.29-20.42,5.32-25.18a2.1,2.1,0,0,0-.42-1.78C224.61,418.27,220.18,410.33,218.75,407.73Z"></path><path class="cls-4" d="M217.59,389c-1.25,0-3.09,2.67-3.09,8.41,0,3.81.48,8.39,2.8,8.65a1.27,1.27,0,0,0,1-.36c1.2-1.08,1.92-4.18,1.92-8.29C220.26,391.9,218.88,389,217.59,389Z"></path><path class="cls-4" d="M217.59,387c1.45,0,2.62,1,3.43,2.83l-6.59-68a1.19,1.19,0,0,0-.17-.49l-3.33-5a.35.35,0,0,0-.34-.15l-4.94.86a1.17,1.17,0,0,0-1,1.31c2.81,24.61-.36,57-1.39,66.33a1.2,1.2,0,0,0,.92,1.29c5,1.31,7.79,3.58,9.18,5.19C214.28,388.54,215.77,387,217.59,387Z"></path><path class="cls-5" d="M212,412.24c-5.95-1.35-10.16-4.93-9.93-8.88s4.93-7.07,11.09-7.69"></path><path class="cls-5" d="M221,396.23c5.75,1.41,9.79,4.93,9.56,8.79-.2,3.45-3.75,6.23-8.7,7.31"></path><path class="cls-5" d="M230.39,406l-.59,7.12a.6.6,0,0,0,.92.55c8.37-5.48,65.31-43.95,77.9-52.45a5.45,5.45,0,0,0,2.32-5.5,9.43,9.43,0,0,0-.54-1.84,4.08,4.08,0,0,0-6.17-1.85l-23.35,15.2"></path><path class="cls-5" d="M230.56,414.17v9.05a6.72,6.72,0,0,1-2.05,3.91"></path><path class="cls-5" d="M483.16,517.84c.19,0,4.78,6.48,15.13,3.81"></path><path class="cls-6" d="M665.31,356.91c-11.34.75-22.83,1.63-34.17,2.63-25.34,2.24-73.74,8.34-74.23,8.4a7.44,7.44,0,0,0-1.7.54c-1.15.63-2.86,1.47-5.1,2.5-.8.37-1.41,2.26-1.62,3.59.67.85,1.66,1.69,2.2,1.66l24.5-2.22,47.19-2,30.08.18.83.13c1,.14,2.93-.88,4.05-1.68l7.71-7a12.75,12.75,0,0,0,3-2l2.45-2.76C668.25,358.44,666.23,357.83,665.31,356.91Z"></path><path class="cls-6" d="M680.55,353.92c-7.84,0-12.45,1.1-13.6,1.81,1.15.72,5.76,1.82,13.6,1.82s12.45-1.1,13.6-1.82C693,355,688.39,353.92,680.55,353.92Z"></path><path class="cls-6" d="M797.58,350.5h-.12l-92.07,3.29h-.08a21.07,21.07,0,0,1-9,2.18c-.2,1.09-1.62,1.84-3.56,2.37a11.48,11.48,0,0,0,2.13.86l34.87-2.35,48.14-2a187.11,187.11,0,0,0,37.58-3.71l-1.29-1.92C810.45,350,798.68,350.46,797.58,350.5Z"></path><path class="cls-6" d="M815.77,348.07a1.83,1.83,0,0,0-1.89-.77c-3.52.74-16.31,1.2-16.44,1.21l-92.13,3.29h-.17a2.34,2.34,0,0,0-.62.17,17.78,17.78,0,0,1-9.68,1.91c-3.52-1.85-12.2-2-14.29-2-2.42,0-13.73.16-15.53,3-11.3.74-22.75,1.62-34.06,2.62-25.37,2.24-73.81,8.35-74.37,8.42a8.61,8.61,0,0,0-2.34.76c-1.11.6-2.78,1.42-5,2.43s-2.73,4.74-2.82,5.48v.06l.14.68.09.13c.34.46,2.07,2.72,4,2.72h.21L575.23,376l47.19-2h.07l29.72.18.78.11c2.17.35,5.23-1.82,5.61-2.09l7.45-6.83a14.56,14.56,0,0,0,3.53-2.41l3.33-3.76c3.24.35,6.47.39,7.64.39a70.4,70.4,0,0,0,9-.57c3.54,1.91,4.78,2.25,5.31,2.25a.78.78,0,0,0,.24,0l34.75-2.34h0l48.06-2c22.69-.07,38.48-3.87,38.72-3.93l.24-.08.32-.33.47-1.27-.08-.49ZM668.08,361.59a12.75,12.75,0,0,1-3,2l-7.71,7c-1.12.8-3.08,1.82-4.05,1.68l-.83-.13L622.38,372l-47.19,2-24.5,2.22c-.54,0-1.53-.81-2.2-1.66.21-1.33.82-3.22,1.62-3.59,2.24-1,3.95-1.87,5.1-2.5a7.44,7.44,0,0,1,1.7-.54c.49-.06,48.89-6.16,74.23-8.4,11.34-1,22.83-1.88,34.17-2.63.92.92,2.94,1.53,5.22,1.92Zm12.47-4c-7.84,0-12.45-1.1-13.6-1.82,1.15-.71,5.76-1.81,13.6-1.81s12.45,1.1,13.6,1.81C693,356.45,688.39,357.55,680.55,357.55Zm97.34-2.64-48.14,2-34.87,2.35a11.48,11.48,0,0,1-2.13-.86c1.94-.53,3.36-1.28,3.56-2.37a21.07,21.07,0,0,0,9-2.18h.08l92.07-3.29h.12c1.1,0,12.87-.47,16.6-1.22l1.29,1.92A187.11,187.11,0,0,1,777.89,354.91Z"></path><path class="cls-8" d="M817.22,352.56l-.32.33-.24.08c-.24.06-16,3.86-38.72,3.93l-48.06,2h0l-34.75,2.34a.78.78,0,0,1-.24,0c-.53,0-1.77-.34-5.31-2.25a70.4,70.4,0,0,1-9,.57c-1.17,0-4.4,0-7.64-.39l-3.33,3.76a14.56,14.56,0,0,1-3.53,2.41l-7.45,6.83c-.38.27-3.44,2.44-5.61,2.09l-.78-.11L622.49,374h-.07l-47.19,2-24.36,2.21h-.21c-1.9,0-3.63-2.26-4-2.72l-.09-.13-.14-.68v-.06c.09-.74.63-4.48,2.82-5.48s3.86-1.83,5-2.43a8.61,8.61,0,0,1,2.34-.76c.56-.07,49-6.18,74.37-8.42,11.31-1,22.76-1.88,34.06-2.62,1.8-2.85,13.11-3,15.53-3,2.09,0,10.77.12,14.29,2a17.78,17.78,0,0,0,9.68-1.91,2.34,2.34,0,0,1,.62-.17h.17l92.13-3.29c.13,0,12.92-.47,16.44-1.21a1.83,1.83,0,0,1,1.89.77l1.84,2.73.08.49Z"></path><path class="cls-4" d="M680.55,353.92c-7.84,0-12.45,1.1-13.6,1.81,1.15.72,5.76,1.82,13.6,1.82s12.45-1.1,13.6-1.82C693,355,688.39,353.92,680.55,353.92Z"></path><path class="cls-4" d="M797.58,350.5h-.12l-92.07,3.29h-.08a21.07,21.07,0,0,1-9,2.18c-.2,1.09-1.62,1.84-3.56,2.37a11.48,11.48,0,0,0,2.13.86l34.87-2.35,48.14-2a187.11,187.11,0,0,0,37.58-3.71l-1.29-1.92C810.45,350,798.68,350.46,797.58,350.5Z"></path><path class="cls-4" d="M631.14,359.54c-25.34,2.24-73.74,8.34-74.23,8.4a7.44,7.44,0,0,0-1.7.54c-1.15.63-2.86,1.47-5.1,2.5-.8.37-1.41,2.26-1.62,3.59.67.85,1.66,1.69,2.2,1.66l24.5-2.22,47.19-2,30.08.18.83.13c1,.14,2.93-.88,4.05-1.68l7.71-7a12.75,12.75,0,0,0,3-2l2.45-2.76c-2.28-.39-4.3-1-5.22-1.92C654,357.66,642.48,358.54,631.14,359.54Z"></path><line class="cls-5" x1="693.4" y1="359.97" x2="689.48" y2="357.78"></line><path class="cls-5" d="M656.89,372.71s5.69,3.58,6,6.2"></path><path class="cls-2" d="M360.85,404.77a8.39,8.39,0,0,1-1-.06,8.85,8.85,0,0,1-5.6-3l1.58-1.23-.79.62.78-.62c.18.21,4.29,5.2,11.11-.21l3.77-3.14,2.51-22.79,1.82,1.74-2.43,22.07-4.41,3.67A11.89,11.89,0,0,1,360.85,404.77Z"></path><line class="cls-5" x1="383.7" y1="389.2" x2="387.9" y2="386.98"></line><line class="cls-5" x1="397.58" y1="380.78" x2="405.08" y2="375.55"></line><line class="cls-5" x1="403.83" y1="376.35" x2="419.93" y2="365.2"></line><path class="cls-2" d="M373.1,419.78a3.7,3.7,0,0,1-1.64-.4,4.87,4.87,0,0,1-2.62-5L371.15,393l2,.21-2.3,21.33a2.93,2.93,0,0,0,1.49,3,1.47,1.47,0,0,0,1.21.12,2.74,2.74,0,0,0,1.23-1.25L377,392.07l1.77,1.14L376.72,417l-.06.16a4.82,4.82,0,0,1-2.43,2.46A3.32,3.32,0,0,1,373.1,419.78Z"></path><line class="cls-5" x1="294.7" y1="349.68" x2="301.19" y2="353.77"></line><path class="cls-4" d="M512.63,454.37c-.39,1.9-7.49,2.06-15.85.35a56.54,56.54,0,0,1-9.21-2.64c-3.39-1.36-5.45-2.8-5.23-3.9.39-1.91,7.49-2.07,15.85-.36S513,452.46,512.63,454.37Z"></path><path class="cls-5" d="M512.63,454.37c-.39,1.9-7.49,2.06-15.85.35a56.54,56.54,0,0,1-9.21-2.64c-3.39-1.36-5.45-2.8-5.23-3.9.39-1.91,7.49-2.07,15.85-.36S513,452.46,512.63,454.37Z"></path><line class="cls-5" x1="311.08" y1="359.23" x2="320.46" y2="364.35"></line><path class="cls-5" d="M509.88,458.35a7.88,7.88,0,0,1,.64.85,3.78,3.78,0,0,1,.76,3c-.59,3.39-7.34,5.07-15.09,3.74s-13.55-5.16-13-8.56c.33-1.95,3.11-3.75,6.54-4.32"></path><path class="cls-5" d="M482.11,467.05l1.11-9.21"></path><path class="cls-5" d="M64.33,280.93c1.37,1.87,6.77,5.26,8.59,5.62a11.41,11.41,0,0,0,8.36-1.87,8.39,8.39,0,0,0,2.5-2.79"></path><path class="cls-5" d="M484.21,454.39a8.53,8.53,0,0,1,.94.89c2.16,2.05,7.05,4.32,14.56,5.69a24.92,24.92,0,0,0,11.6-1.37"></path><path class="cls-5" d="M667.81,362.73A35,35,0,0,0,680.44,366a27.54,27.54,0,0,0,13-3"></path><ellipse class="cls-5" cx="680.34" cy="355.52" rx="0.28" ry="0.01"></ellipse><ellipse class="cls-5" cx="669.47" cy="355.61" rx="0.28" ry="0.01"></ellipse><ellipse class="cls-5" cx="690.97" cy="355.61" rx="0.28" ry="0.01"></ellipse><ellipse class="cls-5" cx="509.79" cy="453.87" rx="0.28" ry="0.01"></ellipse><ellipse class="cls-5" cx="497.81" cy="451.44" rx="0.28" ry="0.01"></ellipse><ellipse class="cls-5" cx="217.45" cy="403.98" rx="0.28" ry="0.01"></ellipse><ellipse class="cls-5" cx="217.45" cy="397.84" rx="0.28" ry="0.01"></ellipse><ellipse class="cls-5" cx="217.45" cy="391.7" rx="0.28" ry="0.01"></ellipse><ellipse class="cls-5" cx="487.14" cy="448.84" rx="0.28" ry="0.01"></ellipse><path class="cls-5" d="M668,388c1.3.55,4.65,2.35,7.18,2.77a28,28,0,0,0,14.56-2"></path><path class="cls-5" d="M72.52,215.41a28.14,28.14,0,0,0,1.48,3,29,29,0,0,0,6.82,8"></path><circle class="cls-2" cx="80.09" cy="259.38" r="0.86"></circle><circle class="cls-2" cx="86.41" cy="251.65" r="0.86"></circle><circle class="cls-2" cx="66.79" cy="254.27" r="0.86"></circle><ellipse class="cls-2" cx="80.23" cy="216.3" rx="0.71" ry="0.94" transform="translate(-129.45 120.08) rotate(-45)"></ellipse><ellipse class="cls-2" cx="85.18" cy="223.01" rx="0.71" ry="0.94" transform="translate(-132.74 125.54) rotate(-45)"></ellipse><ellipse class="cls-2" cx="75.68" cy="210.32" rx="0.71" ry="0.94" transform="translate(-126.56 115.12) rotate(-45)"></ellipse><ellipse class="cls-5" cx="262.54" cy="121.7" rx="0.26" ry="0.21"></ellipse><ellipse class="cls-5" cx="262.46" cy="127.77" rx="0.26" ry="0.21"></ellipse><ellipse class="cls-5" cx="262.46" cy="115.48" rx="0.26" ry="0.21"></ellipse><ellipse class="cls-5" cx="543.83" cy="177.11" rx="0.26" ry="0.21"></ellipse><ellipse class="cls-5" cx="543.75" cy="183.18" rx="0.26" ry="0.21"></ellipse><ellipse class="cls-5" cx="543.75" cy="170.9" rx="0.26" ry="0.21"></ellipse><path class="cls-9" d="M508.79,456.58c0-.25,1.51,0,3.22-.89a6.09,6.09,0,0,0,1.22-.81c6.57,1.68,7.8,2.46,7.74,2.85-.1.72-4.73.68-8.37.07C510.16,457.4,508.75,456.83,508.79,456.58Z"></path><path class="cls-3" d="M521,457.73a1.51,1.51,0,0,1-.08,1c-.42.84-1.76,1-3.36,1s-3.45.1-5.86,0"></path><path class="cls-1" d="M359.1,244.7a4.81,4.81,0,0,1,3.54.77,9.47,9.47,0,0,1,2.67,2.22c4,4.34,6.38,4.63,6.55,7a2.94,2.94,0,0,1-.66,2.23c-1.2,1.22-3.44.48-3.56.44a24,24,0,0,0-5.56-6.56,4.94,4.94,0,0,0-3.11-1.33c-1.39,0-2,.86-2.44.56C355.77,249.45,356.68,245.43,359.1,244.7Z"></path></svg>