<svg width="101" height="101" viewBox="0 0 101 101" fill="none" xmlns="http://www.w3.org/2000/svg">
<path fill-rule="evenodd" clip-rule="evenodd" d="M91.8573 6.76629C89.2673 6.76629 86.9902 7.97551 85.5381 9.82996L82.6495 6.98084C78.1826 2.57485 72.1241 0.0996094 65.8069 0.0996094H39.0074C35.2745 0.0996094 32.2484 3.08438 32.2484 6.76629C32.2484 10.4482 35.2745 13.433 39.0074 13.433H51.2986C50.7139 15.6556 51.3198 18.121 53.1166 19.8411L64.1493 30.4031C67.6677 33.7713 72.378 35.6552 77.2812 35.6552H85.1936C85.5975 35.6552 85.9764 35.5504 86.3042 35.367C87.2122 38.1387 89.8462 40.0997 92.9029 40.0997C96.7331 40.0997 99.8381 37.0371 99.8381 33.2592V14.6381C99.8381 10.2906 96.2651 6.76629 91.8573 6.76629ZM79.4633 10.1235L83.877 14.4769C83.8705 14.8162 83.8862 15.1602 83.9254 15.5074L85.7007 31.2673C85.5378 31.2303 85.368 31.2108 85.1936 31.2108H77.2812C73.5498 31.2108 69.9652 29.7771 67.2876 27.2138L56.2549 16.6517C55.3674 15.8022 55.3674 14.3972 56.2549 13.5475C57.1056 12.7331 58.4588 12.7331 59.3095 13.5475L66.8522 20.7684C67.7451 21.6232 69.1714 21.6022 70.038 20.7215C70.9047 19.8408 70.8834 18.4339 69.9905 17.5791L62.4478 10.3583C60.4575 8.45296 57.5675 8.00662 55.1558 9.01951C55.033 8.99918 54.9069 8.98851 54.7784 8.98851H39.0074C37.7631 8.98851 36.7544 7.99362 36.7544 6.76629C36.7544 5.53899 37.7631 4.54406 39.0074 4.54406H65.8069C70.9291 4.54406 75.8414 6.55104 79.4633 10.1235ZM90.4886 33.5239L88.4038 15.0166C88.1751 12.9864 89.7863 11.2107 91.8573 11.2107C93.7764 11.2107 95.3321 12.7453 95.3321 14.6381V33.2592C95.3321 34.5826 94.2446 35.6552 92.9029 35.6552C91.6651 35.6552 90.6254 34.7372 90.4886 33.5239Z" fill="#FFCA2D" stroke="#FFCA2D" stroke-width="0.2"/>
<path fill-rule="evenodd" clip-rule="evenodd" d="M8.6863 60.0996C4.27857 60.0996 0.705444 63.624 0.705444 67.9714V86.5925C0.705444 90.3704 3.81043 93.433 7.64069 93.433C10.3807 93.433 12.781 91.8573 13.903 89.5345L17.924 93.4021C22.3884 97.6962 28.3774 100.1 34.6131 100.1H61.5363C65.2692 100.1 68.2953 97.1149 68.2953 93.433C68.2953 89.7511 65.2693 86.7663 61.5363 86.7663H49.245C49.8297 84.5436 49.2238 82.0784 47.427 80.3583L36.3943 69.7963C32.8759 66.4281 28.1656 64.5441 23.2624 64.5441H15.8731C14.5883 61.9317 11.8745 60.0996 8.6863 60.0996ZM10.055 86.8572L12.1398 68.35C12.3685 66.3197 10.7573 64.5441 8.6863 64.5441C6.7672 64.5441 5.21139 66.0786 5.21139 67.9714V86.5925C5.21139 87.9159 6.29903 88.9885 7.64069 88.9885C8.87848 88.9885 9.91824 88.0705 10.055 86.8572ZM45.388 91.1798C42.9762 92.1927 40.0861 91.7464 38.0958 89.8411L30.5531 82.6202C29.6602 81.7654 29.6389 80.3585 30.5056 79.4779C31.3722 78.5972 32.7985 78.5762 33.6914 79.431L41.2341 86.6518C42.0848 87.4663 43.4379 87.4663 44.2887 86.6518C45.1762 85.8022 45.1762 84.3972 44.2887 83.5475L33.256 72.9855C30.5784 70.4223 26.9938 68.9885 23.2624 68.9885H16.6016L14.8805 84.2669L21.0699 90.2202C24.6928 93.7049 29.5528 95.6552 34.6131 95.6552H61.5363C62.7806 95.6552 63.7893 94.6603 63.7893 93.433C63.7893 92.2058 62.7806 91.2108 61.5363 91.2108H45.7653C45.6368 91.2108 45.5107 91.2002 45.388 91.1798Z" fill="#FFCA2D" stroke="#FFCA2D" stroke-width="0.2"/>
<path d="M51.4069 63.6641L50.86 66.7676L50.0612 63.708M51.4069 63.6641L50.697 62.1025M51.4069 63.6641L50.697 62.1025M51.4069 63.6641L51.7224 61.8789M50.0612 63.708L50.697 62.1025M50.0612 63.708L50.697 62.1025M50.0612 63.708L49.6989 62.3193M50.697 62.1025L49.6989 62.3193M50.697 62.1025L51.7224 61.8789M49.6989 62.3193L44.3239 63.4902C44.2225 63.4143 44.1207 63.3378 44.0192 63.2598M49.6989 62.3193L48.4479 57.5215M51.7224 61.8789L57.487 60.623M51.7224 61.8789L52.4792 57.5898L53.0173 56.2285M44.0192 63.2598L46.7487 59.7246M44.0192 63.2598L46.7487 59.7246M44.0192 63.2598C43.5679 62.9129 43.1164 62.5463 42.6686 62.1611M46.7487 59.7246L48.4479 57.5215M46.7487 59.7246L47.8063 58.3545L48.4479 57.5215M48.4479 57.5215L48.2311 56.6924M48.2311 56.6924L42.6686 62.1611M48.2311 56.6924L42.6686 62.1611M48.2311 56.6924V56.6904M42.6686 62.1611L42.6677 62.1592M42.6677 62.1592L48.2311 56.6904M42.6677 62.1592L48.2311 56.6904M42.6677 62.1592C41.1939 60.8913 39.7574 59.4283 38.4714 57.8486L39.3679 54.6016L37.1745 56.1426M48.2311 56.6904L48.2263 56.6738L44.0534 47.502M43.3669 46.8281L44.0534 47.502M43.3669 46.8281L41.1706 48.0742L41.1696 48.0752L39.5231 49.0088L39.4294 49.1221H39.4284L35.6276 53.6865M43.3669 46.8281L43.4059 46.8652M43.3669 46.8281L43.6686 46.6572L43.6901 46.7041M44.0534 47.502L43.6901 46.7041M44.0534 47.502L43.4059 46.8652M37.1745 56.1426C36.6095 55.342 36.09 54.52 35.6276 53.6865M37.1745 56.1426C37.5843 56.7233 38.0184 57.2924 38.4704 57.8477L39.3669 54.6025L37.1745 56.1426ZM35.6276 53.6865L39.5222 49.0098L34.6745 51.7607C34.9544 52.4072 35.2746 53.0501 35.6276 53.6865ZM57.487 60.623L53.0173 56.2285M57.487 60.623L61.0417 59.8486C61.7795 59.0961 62.4932 58.3034 63.1677 57.4824L60.0817 46.3242M57.487 60.623L53.0173 56.2285M53.0173 56.2285L55.7038 49.4326L59.0173 46.1748M59.0173 46.1748L60.0817 46.3242M59.0173 46.1748L55.7038 49.4316L55.7595 49.291M59.0173 46.1748L58.9401 46.1641M59.0173 46.1748L59.822 45.3838M59.0173 46.1748L58.9401 46.1641M59.0173 46.1748L59.9489 46.3057L59.4704 45.7295M59.0173 46.1748L59.4704 45.7295M60.0817 46.3242L59.9499 46.3057L59.4704 45.7295M60.0817 46.3242L59.822 45.3838M55.7595 49.291L58.9401 46.1641M55.7595 49.291L58.9401 46.1641M55.7595 49.291L56.7673 46.7412L57.152 46.2422M58.9401 46.1641L58.2311 46.8604M58.9401 46.1641L58.2311 46.8604M57.152 46.2422L58.2311 46.8604M57.152 46.2422L58.2311 46.8604M57.152 46.2422L58.5681 44.4072L59.5192 44.2891M33.4655 47.5312C33.474 47.5987 33.4852 47.6659 33.4948 47.7334L35.6999 47.2529M33.4655 47.5312L35.6999 47.2529M33.4655 47.5312L35.6999 47.2529M33.4655 47.5312C33.105 44.6615 33.7887 41.9051 36.0349 39.6201M35.6999 47.2529L41.7614 45.9326M36.0349 39.6201L39.9948 43.5137L42.3395 43.8418M36.0349 39.6201L39.9958 43.5137L42.3395 43.8408V43.8418M36.0349 39.6201C36.959 38.6801 37.9202 37.9952 38.8923 37.5312M42.3395 43.8418L41.7614 45.9326M42.3395 43.8418L41.9099 45.3955L41.7614 45.9326M41.7614 45.9326L42.1559 45.8467L42.2917 45.6846L42.8962 44.959M43.6901 46.7041L43.4059 46.8652M43.6901 46.7041L43.4059 46.8652M59.5192 44.2891L59.822 45.3838M59.5192 44.2891L58.569 44.4072L59.2927 43.4688L59.5192 44.2891ZM59.822 45.3838L59.4704 45.7295M57.3796 45.9453L56.7692 46.7373L57.0974 45.9062M57.3796 45.9453L57.0974 45.9062M57.3796 45.9453L58.5661 44.4082L57.6442 44.5225M57.3796 45.9453L57.0974 45.9062M57.0974 45.9062L57.6442 44.5225M57.6442 44.5225L58.3874 44.4297L58.5661 44.4072L59.2917 43.4668L58.7849 41.6348L57.6442 44.5225ZM39.822 38.2031L42.3571 43.7754M39.822 38.2031L38.8923 37.5312M39.822 38.2031L38.8923 37.5312M39.822 38.2031L39.4118 37.3027C39.2381 37.3714 39.0654 37.4486 38.8923 37.5312M42.3571 43.7754L42.3405 43.8369V43.8379L42.3571 43.7754ZM42.3571 43.7754L42.8962 44.959M42.8962 44.959L42.2526 45.7314V45.7324L42.1569 45.8467L43.197 45.6201L42.8962 44.959ZM58.777 61.9756V61.9766L57.4157 60.6387V60.6377L58.777 61.9756Z" fill="white" stroke="white" stroke-width="295"/>
<path d="M93.0567 68.4151C96.031 63.3337 96.4086 57.1683 94.0759 51.7708L93.25 49.8598C92.7621 48.7308 93.2945 47.4254 94.4391 46.9442C95.5838 46.4629 96.9072 46.988 97.3952 48.117L98.221 50.028C101.109 56.7113 100.642 64.3455 96.959 70.6373C94.0294 75.6421 89.3323 79.3404 83.84 81.0808L88.1313 83.3841C89.2242 83.9708 89.6281 85.3202 89.0333 86.3982C88.4385 87.4763 87.0704 87.8747 85.9774 87.288C82.6687 85.512 79.1814 84.0024 76.0373 81.941C75.2196 81.3973 74.8526 80.3513 75.1507 79.4273C76.7354 75.6551 79.512 71.659 81.5291 68.1092C82.1374 67.0386 83.5105 66.6572 84.596 67.2572C85.6814 67.8572 86.0682 69.2115 85.4598 70.2822L81.5832 77.1048C86.3948 75.8301 90.5359 72.7214 93.0567 68.4151Z" fill="#FFCA2D" stroke="#FFCA2D" stroke-width="0.2"/>
<path d="M6.20264 41.2881C3.80218 35.9878 4.12319 29.8739 7.06588 24.8467C9.57808 20.5548 13.7441 17.4948 18.5603 16.3208L14.7044 22.908C14.0823 23.9709 14.4515 25.3301 15.5291 25.9437C16.6068 26.5574 17.9847 26.1932 18.6067 25.1303L24.7912 14.5648C25.4185 13.5194 25.0386 12.0987 23.9552 11.497L14.2221 5.95434C13.1445 5.3407 11.7666 5.70486 11.1445 6.76769C10.5223 7.83058 10.8915 9.18969 11.9691 9.80336L16.3659 12.3071C10.8413 13.9499 6.09709 17.6128 3.16355 22.6245C-0.501295 28.8855 -0.90109 36.4998 2.08842 43.1009L3.15323 45.452C3.66073 46.5725 4.99313 47.0751 6.12919 46.5745C7.26527 46.074 7.7749 44.7597 7.26741 43.6392L6.20264 41.2881Z" fill="#FFCA2D" stroke="#FFCA2D" stroke-width="0.2"/>
</svg>
