<svg width="111" height="101" viewBox="0 0 111 101" fill="none" xmlns="http://www.w3.org/2000/svg">
<path d="M78.8599 32.3688L79.3201 30.4922C80.028 27.6492 78.1637 24.7949 75.1903 24.1319C73.7036 23.7948 72.205 24.0758 70.9897 24.7837C70.8481 24.4129 70.6593 24.0645 70.4351 23.7162C69.5266 22.3115 68.0988 21.3339 66.4115 20.9518C64.6062 20.5473 62.8009 20.9069 61.3614 21.8171C61.208 21.3676 60.9956 20.9293 60.7242 20.5248C59.8157 19.1201 58.3879 18.1425 56.7006 17.7604C54.2227 17.1986 51.7331 18.0863 50.2109 19.8506C49.3614 18.7156 48.1343 17.929 46.6947 17.6031C45.1372 17.2548 43.5207 17.502 42.1401 18.3111C40.7714 19.1201 39.8039 20.3787 39.4381 21.8733L38.034 27.5593C23.5443 33.6611 14.2109 47.2693 14.2109 62.4059C14.2109 83.4082 32.1578 100.5 54.2109 100.5C76.264 100.5 94.2109 83.4082 94.2109 62.4059C94.2109 56.2928 92.736 50.4495 89.8216 45.0444C87.2139 40.1337 83.4263 35.7737 78.8599 32.3688ZM74.5649 26.6603C76.0752 26.9974 77.0192 28.447 76.6652 29.8966L73.9396 40.9091C73.8334 41.3586 73.6092 41.7519 73.3024 42.0665C73.2906 42.0778 73.267 42.1002 73.2552 42.1115C72.5826 42.7969 71.5679 43.1341 70.5413 42.8981C69.8098 42.7295 69.1962 42.3025 68.795 41.6957C68.3938 41.0776 68.2758 40.3585 68.441 39.673L71.1667 28.6605C71.5325 27.2109 73.0546 26.3232 74.5649 26.6603ZM65.798 23.4914C66.7655 23.7049 67.5915 24.278 68.1224 25.0871C68.6534 25.8962 68.8186 26.8513 68.5826 27.7728L68.5118 28.0537L65.7154 39.3471C65.4912 40.2686 64.8894 41.0552 64.0398 41.5608C63.1903 42.0665 62.1873 42.2238 61.2198 41.9991C60.2522 41.7856 59.4263 41.2125 58.8953 40.4034C58.3643 39.5943 58.1991 38.6392 58.4351 37.7177L61.3024 26.1322C61.7626 24.2218 63.7921 23.0307 65.798 23.4914ZM56.087 20.2888C57.0546 20.5023 57.8806 21.0754 58.4115 21.8845C58.9425 22.6936 59.1077 23.6487 58.8717 24.5702L58.6357 25.5366L55.5325 38.0773C55.3791 38.7066 55.0487 39.2685 54.5885 39.7179L48.6888 34.65L51.5915 22.9296C52.0517 21.0192 54.0811 19.8393 56.087 20.2888ZM42.1284 22.4576C42.3289 21.6485 42.8481 20.9518 43.6033 20.5136C44.3584 20.0753 45.2434 19.9292 46.0929 20.1203C46.9425 20.3113 47.6741 20.8057 48.1342 21.5249C48.5944 22.2441 48.7478 23.0756 48.5472 23.896L46.3643 32.7172C44.2758 31.3238 41.4086 31.5148 39.5443 33.2566L39.4853 33.3127C39.4971 33.1554 39.5207 33.0093 39.5561 32.852L42.1284 22.4576ZM16.972 62.3946C16.972 48.9662 24.8422 36.8412 37.2552 30.7956L36.8894 32.2564C36.618 33.3577 36.6888 34.5039 37.1018 35.5489L30.5531 41.6957C28.5826 43.5498 28.4764 46.5726 30.3289 48.7077L39.6741 59.5404V95.0612C26.3407 89.6449 16.972 77.048 16.972 62.3946ZM42.4115 96.0501V77.5649V59.0797C42.4115 58.7875 42.3053 58.4953 42.1047 58.2481L32.441 47.0558C31.4853 45.9434 31.4971 44.4713 32.4764 43.5498L41.4558 35.1107C42.4351 34.1892 44.0044 34.1555 45.031 35.032L58.4705 46.5839C58.6829 46.7637 58.7065 47.0671 58.5295 47.2693C57.739 48.1908 56.7832 48.6965 55.6151 48.8088C52.8304 49.0673 48.8422 47.1795 43.7449 43.1902C43.1667 42.7295 42.3053 42.8082 41.8216 43.37C41.3378 43.9207 41.4322 44.741 42.0103 45.2017C47.6741 49.6404 52.1696 51.6631 55.7095 51.4046C56.7006 55.0792 56.2168 58.0571 54.1873 60.9563C53.7626 61.5518 53.9396 62.3609 54.5649 62.7655C54.8009 62.9115 55.0605 62.9902 55.3201 62.9902C55.7567 62.9902 56.1932 62.7879 56.4528 62.4171C58.9425 58.8886 59.5561 55.1354 58.3407 50.7192C59.2021 50.3034 59.9691 49.6966 60.6298 48.9212C61.7272 47.6402 61.5856 45.7636 60.2876 44.6511L59.9809 44.3814C60.1696 44.4376 60.3702 44.4938 60.559 44.5387C61.0546 44.6511 61.5502 44.7073 62.0457 44.7073C63.2375 44.7073 64.4056 44.3926 65.444 43.7746C65.798 43.5611 66.1283 43.3251 66.4351 43.0554C67.1785 44.2128 68.3938 45.0893 69.8806 45.4264C70.3053 45.5276 70.7301 45.5725 71.1549 45.5725C71.9337 45.5725 72.677 45.4152 73.3614 45.1343C74.4587 50.7529 72.9956 54.9893 68.9248 58.0571C68.5826 58.3155 68.4056 58.6976 68.4056 59.0797V95.2073C64.028 96.9378 59.2257 97.893 54.1991 97.893C50.1047 97.8817 46.1283 97.2412 42.4115 96.0501ZM71.1785 94.0049V59.6977C76.0045 55.7872 77.5502 50.2697 75.7803 43.2689C76.1578 42.752 76.441 42.1564 76.6062 41.5047L78.1755 35.1894C86.6829 41.9541 91.5207 51.7642 91.5207 62.4059C91.5089 76.1602 83.2375 88.1166 71.1785 94.0049ZM52.8186 12.6224L52.8658 1.80352C52.8658 1.08433 53.4794 0.5 54.2345 0.5C54.9897 0.5 55.6033 1.08433 55.6033 1.80352L55.5561 12.6224C55.5561 13.3416 54.9425 13.9259 54.1873 13.9259C53.4322 13.9259 52.8186 13.3416 52.8186 12.6224ZM30.4705 8.21996C30.0929 7.60191 30.3171 6.80407 30.9661 6.44448C31.6151 6.08489 32.4528 6.2984 32.8304 6.91644L37.7508 14.951C38.1283 15.5691 37.9042 16.3669 37.2552 16.7265C37.0428 16.8501 36.8068 16.9063 36.5708 16.9063C36.0988 16.9063 35.6387 16.6703 35.3909 16.2546L30.4705 8.21996ZM69.385 15.5354L75.6269 6.91644C76.0045 6.2984 76.8422 6.08489 77.4912 6.44448C78.1401 6.80407 78.3643 7.60191 77.9868 8.21996L71.7449 16.8389C71.4971 17.2547 71.0369 17.4907 70.5649 17.4907C70.3289 17.4907 70.093 17.4345 69.8806 17.3109C69.2316 16.9513 69.0074 16.1534 69.385 15.5354Z" fill="#FFCA2D" stroke="#FFCA2D"/>
<path d="M22.2922 15.9012C22.8754 15.7887 23.4577 16.0287 23.7975 16.5061C24.1248 16.9874 24.154 17.615 23.8675 18.1099L20.8682 23.2902L23.6697 28.5334C23.942 29.0588 23.8883 29.685 23.5364 30.1459C23.343 30.4089 23.0689 30.5884 22.7681 30.6814C22.5299 30.755 22.2639 30.783 22.0126 30.7252L16.1251 29.5378L11.9344 33.8401C11.5258 34.2509 10.9001 34.4036 10.3495 34.2216C9.78247 34.0311 9.39741 33.5406 9.32955 32.9656L8.68406 27.056L3.28485 24.4715C2.75654 24.2284 2.4265 23.6938 2.43766 23.1079C2.44883 22.5219 2.79798 22.0077 3.33913 21.7591L8.83733 19.2877L9.69191 13.3886C9.7734 12.808 10.188 12.3277 10.7521 12.1534C11.3161 11.979 11.9294 12.1417 12.3243 12.575L16.3584 16.9631L22.2922 15.9012Z" fill="white"/>
<path d="M109.089 28.7384C109.68 28.8031 110.165 29.2043 110.349 29.7608C110.52 30.3173 110.362 30.9255 109.942 31.3138L105.547 35.3774L106.675 41.2141C106.78 41.7964 106.544 42.3788 106.072 42.7153C105.809 42.9094 105.494 43 105.18 43C104.93 43 104.668 42.9482 104.445 42.8188L99.1706 39.9458L93.8963 42.8188C93.3846 43.0906 92.7417 43.0518 92.2694 42.7153C91.7839 42.3659 91.5609 41.7835 91.6658 41.2141L92.7942 35.3774L88.3989 31.3138C87.9659 30.9255 87.8085 30.3173 87.9922 29.7608C88.1759 29.2043 88.6613 28.8161 89.2517 28.7384L95.2345 28.0008L97.7929 22.6171C98.0422 22.0865 98.5802 21.75 99.1706 21.75C99.761 21.75 100.299 22.0865 100.548 22.6171L103.107 28.0008L109.089 28.7384Z" fill="white"/>
</svg>
