<svg width="102" height="101" viewBox="0 0 102 101" fill="none" xmlns="http://www.w3.org/2000/svg">
<path d="M91.6266 41.2104C91.5984 41.1982 91.5782 41.182 91.55 41.1698V41.1739C90.1995 40.577 88.7442 40.2725 87.2688 40.2806H87.2245C86.898 40.2643 86.5714 40.2603 86.2247 40.2603C85.7571 40.2603 85.3298 39.9842 85.1363 39.5497C84.58 38.0555 83.4794 36.8252 82.0604 36.1146L81.9355 36.0618V36.0659C81.75 35.9887 81.5606 35.9197 81.3671 35.8669C79.4522 35.4974 77.485 35.5177 75.5782 35.9238C71.6638 37.1215 68.8823 40.6257 68.584 44.7389C68.4873 45.3561 67.939 45.7987 67.3182 45.754C66.6974 45.7094 66.2136 45.1937 66.2056 44.5684C66.5281 40.1385 69.1806 36.2243 73.1595 34.3078C72.1879 33.3576 71.0189 32.6389 69.737 32.2045C68.5155 31.8878 67.2295 31.9162 66.0201 32.2817C65.8508 34.3444 65.3227 36.3583 64.4641 38.2383C63.3837 40.5731 61.8156 42.6479 59.8685 44.3208C59.3525 44.7512 58.9413 45.2913 58.6551 45.9003C58.393 46.4931 58.256 47.1306 58.2519 47.7803H59.7274C61.6503 47.7803 63.2144 49.3516 63.2144 51.2925C63.2144 53.2294 61.6503 54.8048 59.7274 54.8048H58.2479V54.886V54.8819C58.2479 56.3315 57.6755 57.7242 56.6515 58.7433C56.1678 59.2347 55.5954 59.6285 54.9625 59.9046C54.5876 63.2463 51.7818 65.7719 48.4439 65.7719C45.1061 65.7719 42.3004 63.2463 41.9254 59.9046C41.2966 59.6285 40.7241 59.2347 40.2364 58.7433C39.2205 57.7201 38.644 56.3315 38.644 54.8819V54.8007L37.1806 54.8048C35.2577 54.8048 33.6936 53.2294 33.6936 51.2925C33.6936 49.3516 35.2577 47.7803 37.1806 47.7803H38.652C38.648 47.1306 38.5109 46.4931 38.2449 45.9003C37.9627 45.2912 37.5475 44.7512 37.0315 44.3208C35.7858 43.253 34.6974 42.0186 33.7864 40.6503C32.3593 40.7924 31.0653 41.572 30.2712 42.778C29.4448 44.1463 29.1021 46.2781 28.7513 49.234H28.7473C28.6909 49.705 28.3643 50.0948 27.9169 50.2369C24.9217 51.1505 23.3454 52.5716 22.7932 54.3867C22.2087 56.2991 22.6642 58.7597 23.7446 61.6101V61.606C23.8413 61.8659 23.8454 62.1461 23.7607 62.4059C22.8698 65.0858 22.8335 67.1404 23.5954 68.7727H23.5995C24.3614 70.206 25.5264 71.3754 26.9534 72.1347C27.7637 67.7332 30.8678 64.1154 35.0764 62.6699C35.3787 62.5562 35.7093 62.5724 35.9996 62.7105C36.2898 62.8485 36.5115 63.1003 36.6163 63.4089C36.7171 63.7134 36.6929 64.0504 36.5478 64.3387C36.3987 64.627 36.1447 64.8422 35.8343 64.9356C31.9603 66.2673 29.2956 69.8568 29.1263 73.9781V76.8326C30.9726 81.6685 32.4118 85.0874 34.6451 86.8699C36.8381 88.6199 40.0309 88.9041 45.542 87.5967C45.9008 87.5073 46.2837 87.5926 46.5699 87.8281C46.8561 88.0677 47.0174 88.425 47.0013 88.7985L46.6747 97.2076L50.9681 97.5203C54.2817 85.4323 59.5747 84.3606 66.9681 82.8586C70.0762 82.3145 73.1279 81.474 76.0747 80.3411C76.4174 79.4113 76.6955 78.5911 76.9454 77.8481C77.9492 74.8921 78.5821 73.0162 80.2026 71.997C80.3558 71.0347 80.3316 70.0561 80.1341 69.1019C79.4649 65.8576 76.8527 63.3767 73.5955 62.8935C73.2649 62.8732 72.9545 62.7108 72.7489 62.4509C72.5393 62.187 72.4466 61.854 72.495 61.5211C72.5433 61.1881 72.7247 60.8917 72.9989 60.7049C73.273 60.5141 73.6116 60.4451 73.9381 60.5182C78.1871 61.1475 81.5935 64.3796 82.4602 68.6146C82.6376 69.4551 82.7061 70.3119 82.6698 71.1686C83.9397 71.0103 85.2256 70.9737 86.5035 71.059C86.5438 71.0549 86.5841 71.0549 86.6244 71.059L89.7728 71.4041C94.312 69.5567 96.8638 68.0137 98.061 65.8657C99.2542 63.6935 99.1938 60.6765 98.4722 55.8852L97.9441 54.6955C97.5087 55.3046 97.0169 55.869 96.4727 56.3847C95.3439 57.4688 94.0136 58.3256 92.5623 58.9103C91.9536 59.1579 91.2643 58.8615 91.0183 58.2484C90.7724 57.6312 91.0708 56.9369 91.6795 56.6892C93.8725 55.8081 95.6825 54.1677 96.787 52.0644L95.5172 49.1978C95.4567 49.0841 95.4124 48.9623 95.3922 48.8324C94.8117 45.511 94.0901 43.3224 92.7638 42.0271V42.0311C92.4252 41.7063 92.0418 41.4297 91.6266 41.2104ZM7.42176 23.6123V77.969H14.6779V74.6355H13.0936C12.4768 74.5827 12.0011 74.063 12.0011 73.4377C12.0011 72.8124 12.4768 72.2926 13.0936 72.2359H14.6738V68.8007H13.0936C12.4768 68.748 12.0011 68.2282 12.0011 67.603C12.0011 66.9777 12.4768 66.4579 13.0936 66.4052H14.6738V62.9701L13.0936 62.966C12.4768 62.9132 12.0011 62.3935 12.0011 61.7682C12.0011 61.1429 12.4768 60.6232 13.0936 60.5705H14.6738L14.6778 57.1394H10.3967C10.0661 57.1678 9.73558 57.0541 9.48967 56.8267C9.24377 56.5994 9.10268 56.2786 9.10268 55.9416C9.10268 55.6046 9.24377 55.2797 9.48967 55.0523C9.73558 54.825 10.0661 54.7113 10.3967 54.7397H14.6738V51.3046H13.0936C12.4768 51.2518 12.0012 50.7321 12.0012 50.1068C12.0012 49.4815 12.4768 48.9617 13.0936 48.905H14.6738V45.4698H13.0936C12.4768 45.4171 12.0012 44.8973 12.0012 44.2721C12.0012 43.6468 12.4768 43.127 13.0936 43.0743H14.6738L14.6779 39.6311H13.0935C12.4767 39.5783 12.0011 39.0585 12.0011 38.4333C12.0011 37.808 12.4767 37.2882 13.0935 37.2355H14.6737V33.8004H10.3966C9.73952 33.8004 9.20342 33.2604 9.20342 32.5944C9.20342 31.9285 9.73957 31.3926 10.3966 31.3926H14.6737L14.6778 27.9615H13.0934C12.4363 27.9615 11.9002 27.4215 11.9002 26.7597C11.9002 26.0938 12.4364 25.5537 13.0934 25.5537H14.6736L14.6777 23.6128L7.42176 23.6123ZM5.03929 77.969V23.6123H2.89067V77.969H5.03929ZM1.69738 21.2163H15.8708C16.5279 21.2163 17.064 21.7523 17.064 22.4181V79.1709C17.064 79.4916 16.9391 79.7962 16.7133 80.0195C16.4916 80.2428 16.1852 80.3687 15.8708 80.3687H1.69732C1.04023 80.3687 0.504128 79.8327 0.5 79.1709V22.414C0.5 21.7522 1.03615 21.2122 1.69732 21.2122L1.69738 21.2163ZM40.4375 30.3157H40.4335C40.4335 30.9816 39.9014 31.5175 39.2403 31.5175C38.5792 31.5175 38.0471 30.9815 38.0471 30.3157C38.0431 27.5343 39.1396 24.8707 41.0907 22.9054C43.0418 20.9402 45.6903 19.8358 48.4477 19.8358C49.1088 19.8358 49.6409 20.3758 49.6409 21.0418C49.6409 21.7036 49.1088 22.2436 48.4477 22.2436C46.3232 22.2436 44.2834 23.0922 42.7797 24.6067C41.2761 26.1212 40.4296 28.1758 40.4336 30.3197L40.4375 30.3157ZM69.4707 22.203V22.1989C68.9023 22.5319 68.1767 22.337 67.8502 21.7644C67.5196 21.1919 67.7171 20.4611 68.2815 20.1322L73.8729 16.8717C74.4413 16.5428 75.1709 16.7418 75.4974 17.3143C75.824 17.8908 75.6305 18.6217 75.058 18.9506L69.4707 22.203ZM61.2672 13.067C60.9366 13.6233 60.2231 13.8101 59.6627 13.4893C59.1024 13.1645 58.9008 12.4458 59.2153 11.8773L62.4402 6.24141C62.7668 5.66483 63.4924 5.46588 64.0648 5.79476C64.6332 6.12366 64.8308 6.85855 64.5042 7.43109L61.2672 13.067ZM28.6137 20.1321C29.1821 20.461 29.3756 21.1919 29.0491 21.7604C28.7226 22.3329 27.997 22.5278 27.4326 22.1989L21.8412 18.9506C21.2728 18.6217 21.0753 17.8908 21.4018 17.3183C21.7284 16.7417 22.4539 16.5428 23.0264 16.8716L28.6137 20.1321ZM37.68 11.8773H37.6841C38.0066 12.4458 37.8131 13.1767 37.2447 13.5056C36.6763 13.8345 35.9506 13.6396 35.6241 13.067L32.3991 7.43115C32.0726 6.85863 32.2701 6.13182 32.8345 5.80293C33.4029 5.46998 34.1285 5.66894 34.455 6.24146L37.68 11.8773ZM49.6409 9.28678C49.6691 9.61973 49.5562 9.9527 49.3305 10.2004C49.1007 10.4481 48.7822 10.5902 48.4476 10.5902C48.113 10.5902 47.7946 10.4481 47.5688 10.2004C47.3431 9.9527 47.2302 9.61975 47.2584 9.28678V2.78202C47.3108 2.15672 47.8268 1.68164 48.4476 1.68164C49.0684 1.68164 49.5885 2.15671 49.6408 2.78202L49.6409 9.28678ZM55.8651 47.7792C55.8651 45.7369 56.7681 43.8 58.3281 42.4967C61.5209 39.764 63.4518 35.8335 63.6776 31.6187C63.9034 27.408 62.3997 23.2908 59.5174 20.2292C56.6391 17.1677 52.6361 15.4339 48.4472 15.4339C44.2587 15.4339 40.2557 17.1677 37.3769 20.2292C34.4946 23.2908 32.9909 27.408 33.2168 31.6187C33.4425 35.8334 35.3734 39.7638 38.5662 42.4967C40.1303 43.796 41.0373 45.7328 41.0373 47.7792H55.8651ZM55.8651 54.8037H41.0384V54.8849V54.8809C41.0464 56.57 42.4049 57.9384 44.0779 57.9465H52.8217C54.4987 57.9383 55.8572 56.57 55.8653 54.8809L55.8651 54.8037ZM59.723 50.1789L37.18 50.1749C36.7366 50.1789 36.3335 50.451 36.1642 50.8651C35.9908 51.2793 36.0835 51.7544 36.398 52.0752C36.6076 52.2863 36.8858 52.4041 37.18 52.4041H59.723C60.1705 52.4041 60.5695 52.132 60.7429 51.7179C60.9122 51.2996 60.8154 50.8205 60.497 50.5038C60.2914 50.2967 60.0132 50.1789 59.723 50.1749V50.1789ZM51.4025 62.1203C51.8903 61.6249 52.2531 61.0159 52.4546 60.3459H44.4486C44.8678 61.7671 46.0006 62.8594 47.4236 63.2247C48.8507 63.5861 50.3625 63.1679 51.4025 62.1203ZM66.0517 29.82C67.4868 29.4789 68.9824 29.5073 70.3973 29.9052C72.4573 30.6199 74.3037 31.8461 75.7629 33.4784C77.581 33.1536 79.4394 33.1251 81.2695 33.385V16.6361H81.2736V16.5833L81.2816 16.5549V16.4696L81.2857 16.4574V16.4047H81.2937V16.4006L81.2978 16.3844V16.3478H81.3018L81.3582 16.3275V16.295H81.3623V16.2625L81.3744 16.2422V16.2098H81.3784V16.1976H81.3865V16.1854L81.3905 16.1895C81.3945 16.1773 81.4026 16.1651 81.4106 16.157V16.1448L86.1917 6.54595V6.54189C86.3973 6.13991 86.8044 5.88816 87.2559 5.88816C87.7033 5.88816 88.1145 6.13991 88.3201 6.54189L93.1011 16.1407L93.0971 16.1448C93.218 16.3356 93.2825 16.559 93.2785 16.7823V39.4353C93.6695 39.6911 94.0323 39.9794 94.3669 40.3043C96.1044 41.9934 97.0114 44.5393 97.6725 48.2911L100.68 55.0842H100.676C100.72 55.1817 100.752 55.2832 100.765 55.3928C101.591 60.7972 101.635 64.273 100.099 67.0463C98.5675 69.8196 95.5723 71.6427 90.3438 73.754L90.3478 73.75C90.1664 73.8231 89.9729 73.8515 89.7794 73.8271L86.3569 73.4536C81.0316 73.2221 80.56 74.6189 79.2014 78.6266C78.891 79.5402 78.5444 80.5715 78.117 81.6922C77.9921 82.0129 77.7381 82.2687 77.4196 82.3865C74.1946 83.6737 70.8487 84.6237 67.4342 85.2166C60.7182 86.5728 55.9532 87.5392 53.0265 99.0956C52.8773 99.6803 52.3251 100.062 51.7325 99.9929L45.3631 99.526H45.3591C44.706 99.4773 44.2142 98.9047 44.2585 98.2469L44.2626 98.2185L44.573 90.2642C39.159 91.3484 35.7566 90.8123 33.1808 88.7497C30.4396 86.5611 28.8633 82.789 26.8356 77.4736V77.4695C26.7832 77.3355 26.755 77.1934 26.755 77.0472V74.7775C24.4935 73.7502 22.631 72.0001 21.4539 69.7993C20.4622 67.6838 20.426 65.1827 21.3814 62.0724C20.2284 58.9133 19.797 56.0792 20.5268 53.6876C21.2645 51.2717 23.1148 49.3958 26.4889 48.198H26.4849C26.6179 45.8835 27.2145 43.6179 28.2384 41.5431C29.1939 39.9595 30.758 38.851 32.5559 38.4775C32.5156 38.3962 32.4753 38.311 32.4471 38.2338C30.246 33.4263 30.2904 27.8839 32.564 23.1127C34.8375 18.3416 39.1026 14.8376 44.2018 13.5626C49.3013 12.2836 54.7034 13.3677 58.9284 16.5105C63.1572 19.6532 65.7694 24.5339 66.0597 29.8208L66.0517 29.82ZM74.1182 52.4564C73.4813 52.3265 73.0621 51.7052 73.183 51.0596C73.2999 50.418 73.9126 49.9877 74.5536 50.1013C78.609 50.8809 82.7209 49.0456 84.8735 45.4968C85.0388 45.2247 85.3008 45.0258 85.6113 44.9486C85.9176 44.8715 86.2442 44.9202 86.5143 45.0867C86.7843 45.2532 86.9778 45.5252 87.0504 45.8338C87.123 46.1465 87.0706 46.4754 86.9013 46.7433C84.2366 51.1449 79.1455 53.4187 74.1182 52.4564ZM60.1377 62.9727C59.7628 62.4408 59.8757 61.7058 60.3998 61.316C60.9198 60.9302 61.6494 61.0317 62.0446 61.5474C63.0605 62.9239 64.814 63.5248 66.4547 63.0619C67.0272 62.8954 67.6318 63.1878 67.8697 63.736C68.1075 64.2882 67.9019 64.9337 67.3859 65.2383C63.9916 67.5649 62.371 71.7593 63.3063 75.7868C63.3991 76.404 63.004 76.9928 62.3953 77.1349C61.7906 77.277 61.1778 76.9278 60.9884 76.3309C60.0854 72.4613 61.0851 68.3928 63.6652 65.3926C63.5241 65.352 63.383 65.3114 63.2499 65.2667C62.0043 64.8363 60.9199 64.0364 60.1379 62.9686L60.1377 62.9727ZM50.4829 74.622C51.0594 74.3418 51.7487 74.5692 52.047 75.1376C52.3493 75.7061 52.1478 76.4126 51.5955 76.7334C47.0845 79.1656 41.5496 78.5322 37.6955 75.1376C37.2037 74.7032 37.1553 73.948 37.5867 73.4525C38.022 72.9531 38.7718 72.9044 39.2637 73.3429C42.3758 76.0715 46.8428 76.5831 50.4829 74.622Z" fill="#FFCA2D"/>
<path d="M90.9403 17.9555V38.3872C90.1381 38.172 89.3197 38.03 88.4893 37.9569M86.1028 17.955V36.4585C85.4578 35.5449 84.6233 34.7894 83.6558 34.2372M84.3855 15.5601H90.2065L88.6505 12.4417M91.6266 41.2104C91.5983 41.1982 91.5782 41.182 91.55 41.1698V41.1739C90.1995 40.577 88.7442 40.2725 87.2688 40.2806H87.2245C86.898 40.2643 86.5714 40.2603 86.2247 40.2603C85.7571 40.2603 85.3298 39.9842 85.1363 39.5497C84.58 38.0555 83.4794 36.8252 82.0604 36.1146L81.9355 36.0618V36.0659C81.75 35.9887 81.5606 35.9197 81.3671 35.8669C79.4522 35.4974 77.485 35.5177 75.5782 35.9238C71.6638 37.1215 68.8823 40.6257 68.584 44.7389C68.4873 45.3561 67.939 45.7987 67.3182 45.754C66.6974 45.7094 66.2136 45.1937 66.2056 44.5684C66.5281 40.1385 69.1806 36.2243 73.1595 34.3078C72.1879 33.3576 71.0189 32.6389 69.737 32.2045C68.5155 31.8878 67.2295 31.9162 66.0201 32.2817C65.8508 34.3444 65.3227 36.3583 64.4641 38.2383C63.3837 40.5731 61.8156 42.6479 59.8685 44.3208C59.3525 44.7512 58.9413 45.2913 58.6551 45.9003C58.393 46.4931 58.256 47.1306 58.252 47.7803H59.7274C61.6503 47.7803 63.2144 49.3516 63.2144 51.2925C63.2144 53.2294 61.6503 54.8048 59.7274 54.8048H58.2479V54.886V54.8819C58.2479 56.3315 57.6755 57.7242 56.6515 58.7433C56.1678 59.2347 55.5954 59.6285 54.9625 59.9046C54.5876 63.2463 51.7818 65.7719 48.4439 65.7719C45.1061 65.7719 42.3004 63.2463 41.9254 59.9046C41.2966 59.6285 40.7241 59.2347 40.2364 58.7433C39.2205 57.7201 38.644 56.3315 38.644 54.8819V54.8007L37.1806 54.8048C35.2577 54.8048 33.6936 53.2294 33.6936 51.2925C33.6936 49.3516 35.2577 47.7803 37.1806 47.7803H38.652C38.648 47.1306 38.5109 46.4931 38.2449 45.9003C37.9627 45.2912 37.5475 44.7512 37.0315 44.3208C35.7858 43.253 34.6974 42.0186 33.7864 40.6503C32.3593 40.7924 31.0653 41.572 30.2712 42.778C29.4448 44.1463 29.1021 46.2781 28.7513 49.234H28.7473C28.6909 49.705 28.3643 50.0948 27.9169 50.2369C24.9217 51.1505 23.3454 52.5716 22.7932 54.3866C22.2087 56.2991 22.6642 58.7597 23.7446 61.6101V61.606C23.8413 61.8659 23.8454 62.1461 23.7607 62.4059C22.8698 65.0858 22.8335 67.1404 23.5954 68.7727H23.5995C24.3614 70.206 25.5264 71.3754 26.9534 72.1347C27.7637 67.7332 30.8678 64.1154 35.0764 62.6699C35.3787 62.5562 35.7093 62.5724 35.9996 62.7105C36.2898 62.8485 36.5115 63.1003 36.6163 63.4089C36.7171 63.7134 36.6929 64.0504 36.5478 64.3387C36.3987 64.627 36.1447 64.8422 35.8343 64.9356C31.9603 66.2673 29.2956 69.8568 29.1263 73.9781V76.8326C30.9726 81.6685 32.4118 85.0874 34.6451 86.8699C36.8381 88.6199 40.0309 88.9041 45.542 87.5967C45.9008 87.5073 46.2837 87.5926 46.5699 87.8281C46.8561 88.0677 47.0174 88.425 47.0013 88.7985L46.6747 97.2076L50.9681 97.5203C54.2817 85.4323 59.5747 84.3606 66.9681 82.8586C70.0762 82.3145 73.1279 81.474 76.0747 80.3411C76.4173 79.4113 76.6955 78.5911 76.9454 77.8481C77.9492 74.892 78.5821 73.0162 80.2026 71.997C80.3558 71.0347 80.3316 70.0561 80.1341 69.1019C79.4649 65.8576 76.8527 63.3767 73.5955 62.8935C73.2649 62.8732 72.9545 62.7108 72.7489 62.4509C72.5393 62.187 72.4466 61.854 72.495 61.5211C72.5433 61.1881 72.7247 60.8917 72.9989 60.7049C73.273 60.5141 73.6116 60.4451 73.9381 60.5182C78.1871 61.1475 81.5935 64.3796 82.4602 68.6146C82.6375 69.4551 82.7061 70.3119 82.6698 71.1686C83.9397 71.0103 85.2256 70.9737 86.5035 71.059C86.5438 71.0549 86.5841 71.0549 86.6244 71.059L89.7728 71.4041C94.312 69.5567 96.8638 68.0137 98.061 65.8657C99.2542 63.6935 99.1938 60.6765 98.4722 55.8852L97.9441 54.6955C97.5087 55.3046 97.0169 55.869 96.4727 56.3847C95.3439 57.4688 94.0136 58.3256 92.5623 58.9103C91.9536 59.1579 91.2643 58.8615 91.0184 58.2484C90.7724 57.6312 91.0708 56.9369 91.6795 56.6892C93.8725 55.8081 95.6825 54.1677 96.787 52.0644L95.5172 49.1978C95.4567 49.0841 95.4124 48.9623 95.3922 48.8324C94.8117 45.511 94.0901 43.3224 92.7638 42.0271V42.0311C92.4252 41.7063 92.0418 41.4297 91.6266 41.2104ZM7.42176 23.6123V77.969H14.6779V74.6355H13.0936C12.4768 74.5827 12.0011 74.063 12.0011 73.4377C12.0011 72.8124 12.4768 72.2926 13.0936 72.2359H14.6738V68.8007H13.0936C12.4768 68.748 12.0011 68.2282 12.0011 67.603C12.0011 66.9777 12.4768 66.4579 13.0936 66.4052H14.6738V62.9701L13.0936 62.966C12.4768 62.9132 12.0011 62.3935 12.0011 61.7682C12.0011 61.1429 12.4768 60.6232 13.0936 60.5705H14.6738L14.6778 57.1394H10.3967C10.0661 57.1678 9.73558 57.0541 9.48967 56.8267C9.24377 56.5994 9.10268 56.2786 9.10268 55.9416C9.10268 55.6046 9.24377 55.2797 9.48967 55.0523C9.73558 54.825 10.0661 54.7113 10.3967 54.7397H14.6738V51.3046H13.0936C12.4768 51.2518 12.0012 50.7321 12.0012 50.1068C12.0012 49.4815 12.4768 48.9617 13.0936 48.905H14.6738V45.4698H13.0936C12.4768 45.4171 12.0012 44.8973 12.0012 44.2721C12.0012 43.6468 12.4768 43.127 13.0936 43.0743H14.6738L14.6779 39.6311H13.0935C12.4767 39.5783 12.0011 39.0585 12.0011 38.4333C12.0011 37.808 12.4767 37.2882 13.0935 37.2355H14.6737V33.8004H10.3966C9.73952 33.8004 9.20342 33.2604 9.20342 32.5944C9.20342 31.9285 9.73957 31.3926 10.3966 31.3926H14.6737L14.6778 27.9615H13.0934C12.4363 27.9615 11.9002 27.4215 11.9002 26.7597C11.9002 26.0938 12.4364 25.5537 13.0934 25.5537H14.6736L14.6777 23.6128L7.42176 23.6123ZM5.03929 77.969V23.6123H2.89067V77.969H5.03929ZM1.69738 21.2163H15.8708C16.5279 21.2163 17.064 21.7523 17.064 22.4181V79.1709C17.064 79.4916 16.9391 79.7962 16.7133 80.0195C16.4916 80.2428 16.1852 80.3687 15.8708 80.3687H1.69732C1.04023 80.3687 0.504128 79.8327 0.5 79.1709V22.414C0.5 21.7522 1.03615 21.2122 1.69732 21.2122L1.69738 21.2163ZM40.4375 30.3157H40.4335C40.4335 30.9816 39.9014 31.5175 39.2403 31.5175C38.5792 31.5175 38.0471 30.9815 38.0471 30.3157C38.0431 27.5343 39.1396 24.8707 41.0907 22.9054C43.0418 20.9402 45.6903 19.8358 48.4477 19.8358C49.1088 19.8358 49.6409 20.3758 49.6409 21.0418C49.6409 21.7036 49.1088 22.2436 48.4477 22.2436C46.3232 22.2436 44.2834 23.0922 42.7797 24.6067C41.2761 26.1212 40.4296 28.1758 40.4336 30.3197L40.4375 30.3157ZM69.4707 22.203V22.1989C68.9023 22.5319 68.1767 22.337 67.8502 21.7644C67.5196 21.1919 67.7171 20.4611 68.2815 20.1322L73.8729 16.8717C74.4413 16.5428 75.1709 16.7418 75.4974 17.3143C75.824 17.8908 75.6305 18.6217 75.058 18.9506L69.4707 22.203ZM61.2672 13.067C60.9366 13.6233 60.2231 13.8101 59.6627 13.4893C59.1024 13.1645 58.9008 12.4458 59.2153 11.8773L62.4402 6.24141C62.7668 5.66483 63.4924 5.46588 64.0648 5.79476C64.6332 6.12366 64.8308 6.85855 64.5042 7.43109L61.2672 13.067ZM28.6137 20.1321C29.1821 20.461 29.3756 21.1919 29.0491 21.7604C28.7226 22.3329 27.997 22.5278 27.4326 22.1989L21.8412 18.9506C21.2728 18.6217 21.0753 17.8908 21.4018 17.3183C21.7284 16.7417 22.4539 16.5428 23.0264 16.8716L28.6137 20.1321ZM37.68 11.8773H37.6841C38.0066 12.4458 37.8131 13.1767 37.2447 13.5056C36.6763 13.8345 35.9506 13.6396 35.6241 13.067L32.3991 7.43115C32.0726 6.85863 32.2701 6.13182 32.8345 5.80293C33.4029 5.46998 34.1285 5.66894 34.455 6.24146L37.68 11.8773ZM49.6409 9.28678C49.6691 9.61973 49.5562 9.9527 49.3305 10.2004C49.1007 10.4481 48.7822 10.5902 48.4476 10.5902C48.113 10.5902 47.7946 10.4481 47.5688 10.2004C47.3431 9.9527 47.2302 9.61975 47.2584 9.28678V2.78202C47.3108 2.15672 47.8268 1.68164 48.4476 1.68164C49.0684 1.68164 49.5885 2.15671 49.6408 2.78202L49.6409 9.28678ZM55.8651 47.7792C55.8651 45.7369 56.7681 43.8 58.3281 42.4967C61.5209 39.764 63.4518 35.8335 63.6776 31.6187C63.9034 27.408 62.3997 23.2908 59.5174 20.2292C56.6391 17.1677 52.6361 15.4339 48.4472 15.4339C44.2587 15.4339 40.2557 17.1677 37.3769 20.2292C34.4946 23.2908 32.9909 27.408 33.2167 31.6187C33.4425 35.8334 35.3734 39.7638 38.5662 42.4967C40.1303 43.796 41.0373 45.7328 41.0373 47.7792H55.8651ZM55.8651 54.8037H41.0384V54.8849V54.8809C41.0464 56.57 42.4049 57.9383 44.0779 57.9465H52.8217C54.4987 57.9383 55.8572 56.57 55.8653 54.8809L55.8651 54.8037ZM59.723 50.1789L37.18 50.1749C36.7366 50.1789 36.3335 50.451 36.1642 50.8651C35.9908 51.2793 36.0835 51.7544 36.398 52.0752C36.6076 52.2863 36.8858 52.4041 37.18 52.4041H59.723C60.1705 52.4041 60.5695 52.132 60.7429 51.7179C60.9122 51.2996 60.8154 50.8205 60.497 50.5038C60.2914 50.2967 60.0132 50.1789 59.723 50.1749V50.1789ZM51.4025 62.1203C51.8903 61.6249 52.2531 61.0159 52.4546 60.3459H44.4486C44.8678 61.7671 46.0006 62.8594 47.4236 63.2247C48.8507 63.5861 50.3625 63.1679 51.4025 62.1203ZM66.0517 29.82C67.4868 29.4789 68.9824 29.5073 70.3973 29.9052C72.4573 30.6199 74.3037 31.8461 75.7629 33.4784C77.581 33.1536 79.4394 33.1251 81.2695 33.385V16.6361H81.2736V16.5833L81.2816 16.5549V16.4696L81.2857 16.4574V16.4047H81.2937V16.4006L81.2978 16.3844V16.3478H81.3018L81.3582 16.3275V16.295H81.3623V16.2625L81.3744 16.2422V16.2098H81.3784V16.1976H81.3865V16.1854L81.3905 16.1895C81.3945 16.1773 81.4026 16.1651 81.4106 16.157V16.1448L86.1917 6.54595V6.54189C86.3973 6.13991 86.8044 5.88816 87.2559 5.88816C87.7033 5.88816 88.1145 6.13991 88.3201 6.54189L93.1011 16.1407L93.0971 16.1448C93.218 16.3356 93.2825 16.559 93.2785 16.7823V39.4353C93.6695 39.6911 94.0323 39.9794 94.3669 40.3043C96.1044 41.9934 97.0114 44.5393 97.6725 48.2911L100.68 55.0842H100.676C100.72 55.1817 100.752 55.2832 100.765 55.3928C101.591 60.7972 101.635 64.273 100.099 67.0463C98.5675 69.8196 95.5723 71.6427 90.3438 73.754L90.3478 73.75C90.1664 73.8231 89.9729 73.8515 89.7794 73.8271L86.3569 73.4536C81.0316 73.2221 80.56 74.6189 79.2014 78.6266C78.891 79.5402 78.5444 80.5715 78.117 81.6922C77.9921 82.0129 77.7381 82.2687 77.4196 82.3865C74.1946 83.6737 70.8487 84.6237 67.4342 85.2166C60.7182 86.5728 55.9532 87.5392 53.0265 99.0956C52.8773 99.6803 52.3251 100.062 51.7325 99.9929L45.3631 99.526H45.3591C44.706 99.4773 44.2142 98.9047 44.2585 98.2469L44.2626 98.2185L44.573 90.2642C39.159 91.3484 35.7566 90.8123 33.1808 88.7497C30.4396 86.5611 28.8633 82.789 26.8356 77.4736V77.4695C26.7832 77.3355 26.755 77.1934 26.755 77.0472V74.7775C24.4935 73.7502 22.631 72.0001 21.4539 69.7994C20.4622 67.6838 20.426 65.1827 21.3814 62.0724C20.2284 58.9133 19.797 56.0792 20.5268 53.6876C21.2645 51.2717 23.1148 49.3958 26.4889 48.198H26.4849C26.6179 45.8835 27.2145 43.6179 28.2384 41.5431C29.1939 39.9595 30.758 38.851 32.5559 38.4775C32.5156 38.3962 32.4753 38.311 32.4471 38.2338C30.246 33.4263 30.2904 27.8839 32.564 23.1127C34.8375 18.3416 39.1026 14.8376 44.2018 13.5626C49.3013 12.2836 54.7034 13.3677 58.9284 16.5105C63.1572 19.6532 65.7694 24.5339 66.0597 29.8208L66.0517 29.82ZM74.1182 52.4564C73.4813 52.3265 73.0621 51.7052 73.183 51.0596C73.2999 50.418 73.9126 49.9877 74.5536 50.1013C78.609 50.8809 82.7209 49.0456 84.8735 45.4968C85.0388 45.2247 85.3008 45.0258 85.6113 44.9486C85.9176 44.8715 86.2442 44.9202 86.5143 45.0867C86.7844 45.2532 86.9778 45.5252 87.0504 45.8338C87.123 46.1465 87.0706 46.4754 86.9013 46.7433C84.2366 51.1449 79.1455 53.4187 74.1182 52.4564ZM60.1377 62.9727C59.7628 62.4408 59.8757 61.7058 60.3998 61.316C60.9198 60.9302 61.6494 61.0317 62.0446 61.5474C63.0605 62.9239 64.814 63.5248 66.4547 63.0619C67.0272 62.8954 67.6318 63.1878 67.8697 63.736C68.1075 64.2882 67.9019 64.9337 67.3859 65.2383C63.9916 67.5649 62.371 71.7593 63.3063 75.7868C63.3991 76.404 63.004 76.9928 62.3953 77.1349C61.7906 77.277 61.1778 76.9278 60.9884 76.3309C60.0854 72.4613 61.0851 68.3928 63.6652 65.3926C63.5241 65.352 63.383 65.3114 63.2499 65.2667C62.0043 64.8363 60.9199 64.0364 60.1379 62.9686L60.1377 62.9727ZM50.4829 74.622C51.0594 74.3418 51.7487 74.5692 52.047 75.1376C52.3493 75.7061 52.1478 76.4126 51.5955 76.7334C47.0845 79.1656 41.5496 78.5322 37.6955 75.1376C37.2037 74.7032 37.1553 73.948 37.5867 73.4525C38.022 72.9531 38.7718 72.9044 39.2637 73.3429C42.3758 76.0715 46.8428 76.5831 50.4829 74.622Z" stroke="#FFCA2D"/>
<path d="M81.3333 32.6862V14.5272L86.0157 3.98376C86.71 2.42055 88.9188 2.39354 89.6511 3.9393L94.6667 14.5272L95.0833 40.3361L88.4167 36.5546L81.3333 32.6862Z" fill="white" stroke="white"/>
</svg>
